<svg width="98" height="33" viewBox="0 0 98 33" fill="none" xmlns="http://www.w3.org/2000/svg">
<g filter="url(#filter0_d_2_44)">
<rect x="4" width="90" height="25" rx="12.5" fill="#26A96C"/>
</g>
<path d="M29.304 17.238C28.7907 17.238 28.268 17.1727 27.736 17.042C27.2133 16.9207 26.7747 16.7573 26.42 16.552L26.504 14.606H26.91L27.344 15.572C27.4747 15.8427 27.61 16.0667 27.75 16.244C27.89 16.4213 28.0767 16.5567 28.31 16.65C28.4687 16.7153 28.618 16.762 28.758 16.79C28.9073 16.8087 29.0707 16.818 29.248 16.818C29.8173 16.818 30.2653 16.6733 30.592 16.384C30.928 16.0853 31.096 15.6933 31.096 15.208C31.096 14.7693 30.9793 14.424 30.746 14.172C30.522 13.92 30.158 13.6773 29.654 13.444L29.08 13.192C28.296 12.8467 27.6753 12.4453 27.218 11.988C26.77 11.5307 26.546 10.924 26.546 10.168C26.546 9.608 26.686 9.132 26.966 8.74C27.2553 8.33867 27.652 8.03067 28.156 7.816C28.66 7.60133 29.248 7.494 29.92 7.494C30.4147 7.494 30.8767 7.55933 31.306 7.69C31.7447 7.82067 32.1273 7.998 32.454 8.222L32.356 9.958H31.95L31.432 8.908C31.2827 8.6 31.138 8.38067 30.998 8.25C30.8673 8.11 30.704 8.02133 30.508 7.984C30.396 7.96533 30.298 7.95133 30.214 7.942C30.1393 7.93267 30.0367 7.928 29.906 7.928C29.4487 7.928 29.052 8.06333 28.716 8.334C28.3893 8.59533 28.226 8.95933 28.226 9.426C28.226 9.874 28.352 10.238 28.604 10.518C28.856 10.798 29.22 11.0453 29.696 11.26L30.326 11.526C31.2313 11.918 31.88 12.338 32.272 12.786C32.664 13.2247 32.86 13.7893 32.86 14.48C32.86 15.3013 32.5473 15.9687 31.922 16.482C31.306 16.986 30.4333 17.238 29.304 17.238ZM35.923 17.196C35.559 17.196 35.2277 17.1307 34.929 17C34.6304 16.86 34.3924 16.636 34.215 16.328C34.047 16.0107 33.9677 15.5953 33.977 15.082L34.019 11.568C34.019 11.3627 33.9864 11.2133 33.921 11.12C33.8557 11.0267 33.739 10.9613 33.571 10.924L33.403 10.868V10.616L35.797 10.154L35.951 10.308L35.881 12.282V15.46C35.881 15.7773 35.965 16.0107 36.133 16.16C36.3104 16.3 36.5297 16.37 36.791 16.37C37.0617 16.37 37.3044 16.3327 37.519 16.258C37.743 16.174 37.9717 16.0527 38.205 15.894L38.247 11.582C38.247 11.3673 38.2144 11.218 38.149 11.134C38.093 11.05 37.981 10.9847 37.813 10.938L37.659 10.896V10.644L39.997 10.154L40.151 10.308L40.109 12.282V15.95C40.109 16.146 40.1324 16.3047 40.179 16.426C40.235 16.538 40.3517 16.622 40.529 16.678L40.711 16.734V17L38.345 17.14L38.219 16.258C37.9017 16.5287 37.5564 16.7527 37.183 16.93C36.8097 17.1073 36.3897 17.196 35.923 17.196ZM43.6024 17.182L41.3064 17V16.734L41.4464 16.706C41.8104 16.622 41.9924 16.3887 41.9924 16.006V8.726C41.9924 8.53933 41.955 8.39467 41.8804 8.292C41.815 8.18933 41.689 8.11467 41.5024 8.068L41.3204 8.026V7.774L43.7144 7.172L43.8964 7.298L43.8404 9.272V10.742C44.503 10.294 45.217 10.07 45.9824 10.07C46.7664 10.07 47.415 10.3593 47.9284 10.938C48.4417 11.5073 48.6984 12.3893 48.6984 13.584C48.6984 14.3773 48.5677 15.0447 48.3064 15.586C48.045 16.118 47.695 16.5193 47.2564 16.79C46.8177 17.0607 46.3324 17.196 45.8004 17.196C45.4457 17.196 45.091 17.1493 44.7364 17.056C44.391 16.9627 44.083 16.818 43.8124 16.622L43.6024 17.182ZM45.1424 16.58C45.4504 16.58 45.721 16.4913 45.9544 16.314C46.1877 16.1367 46.3697 15.8333 46.5004 15.404C46.631 14.9747 46.6964 14.3867 46.6964 13.64C46.6964 12.8933 46.6357 12.31 46.5144 11.89C46.393 11.47 46.2157 11.176 45.9824 11.008C45.7584 10.84 45.4877 10.756 45.1704 10.756C44.7504 10.756 44.321 10.8773 43.8824 11.12V16.23C44.265 16.4633 44.685 16.58 45.1424 16.58ZM49.3448 17V16.72L49.6528 16.636C49.8021 16.5893 49.9001 16.524 49.9468 16.44C49.9934 16.3467 50.0214 16.2253 50.0308 16.076V13.304C50.0308 12.996 50.0308 12.7347 50.0308 12.52C50.0308 12.3053 50.0261 12.0533 50.0168 11.764C50.0168 11.6053 49.9934 11.484 49.9468 11.4C49.9001 11.3067 49.7974 11.2413 49.6388 11.204L49.3448 11.134V10.882L51.6128 10.07L51.7808 10.224L51.8788 11.162C52.2054 10.8633 52.5694 10.6067 52.9708 10.392C53.3721 10.1773 53.7828 10.07 54.2028 10.07C54.6694 10.07 55.0334 10.1633 55.2948 10.35C55.5561 10.5367 55.7568 10.8213 55.8968 11.204C56.2514 10.8493 56.6434 10.574 57.0728 10.378C57.5021 10.1727 57.9268 10.07 58.3468 10.07C58.9814 10.07 59.4574 10.2287 59.7748 10.546C60.0921 10.8633 60.2508 11.3627 60.2508 12.044V16.09C60.2508 16.3887 60.3814 16.5753 60.6428 16.65L60.9088 16.72V17H57.7588V16.72L58.0108 16.65C58.2628 16.566 58.3888 16.3747 58.3888 16.076V11.974C58.3888 11.5727 58.3141 11.302 58.1648 11.162C58.0248 11.0127 57.7914 10.938 57.4648 10.938C57.2128 10.938 56.9748 10.9893 56.7508 11.092C56.5268 11.1947 56.2794 11.3533 56.0088 11.568C56.0648 11.848 56.0928 12.17 56.0928 12.534V16.09C56.1021 16.2487 56.1301 16.3747 56.1768 16.468C56.2328 16.552 56.3354 16.6127 56.4848 16.65L56.7228 16.72V17H53.5588V16.72L53.8528 16.636C54.0021 16.5893 54.1001 16.524 54.1468 16.44C54.2028 16.3467 54.2308 16.2253 54.2308 16.076V11.988C54.2308 11.6053 54.1608 11.3347 54.0208 11.176C53.8808 11.0173 53.6428 10.938 53.3068 10.938C52.8774 10.938 52.4154 11.1433 51.9208 11.554V16.09C51.9208 16.398 52.0514 16.5847 52.3128 16.65L52.5508 16.72V17H49.3448ZM63.1094 9.3C62.8014 9.3 62.5401 9.202 62.3254 9.006C62.1107 8.81 62.0034 8.56267 62.0034 8.264C62.0034 7.956 62.1107 7.70867 62.3254 7.522C62.5401 7.326 62.8014 7.228 63.1094 7.228C63.4174 7.228 63.6787 7.326 63.8934 7.522C64.1081 7.70867 64.2154 7.956 64.2154 8.264C64.2154 8.56267 64.1081 8.81 63.8934 9.006C63.6787 9.202 63.4174 9.3 63.1094 9.3ZM61.4994 17V16.734L61.7094 16.678C61.8961 16.622 62.0221 16.538 62.0874 16.426C62.1527 16.314 62.1901 16.1647 62.1994 15.978V13.402C62.1994 13.1127 62.1994 12.8467 62.1994 12.604C62.1994 12.352 62.1947 12.0953 62.1854 11.834C62.1854 11.6473 62.1481 11.5027 62.0734 11.4C62.0081 11.288 61.8821 11.2133 61.6954 11.176L61.4994 11.134V10.882L63.9494 10.07L64.1174 10.224L64.0754 12.212V15.992C64.0754 16.1787 64.1081 16.328 64.1734 16.44C64.2481 16.552 64.3741 16.636 64.5514 16.692L64.7054 16.734V17H61.4994ZM67.9592 17.196C67.3805 17.196 66.9232 17.056 66.5872 16.776C66.2605 16.4867 66.0972 16.02 66.0972 15.376C66.0972 15.152 66.0972 14.942 66.0972 14.746C66.1065 14.5407 66.1112 14.3027 66.1112 14.032V10.714H65.1172V10.406L65.4952 10.35C65.7659 10.3033 65.9945 10.2193 66.1812 10.098C66.3772 9.97667 66.5545 9.80867 66.7132 9.594L67.6232 8.334H68.0432L68.0012 10.28H69.5972V10.714H67.9872V15.488C67.9872 15.824 68.0572 16.076 68.1972 16.244C68.3465 16.412 68.5285 16.496 68.7432 16.496C68.9299 16.496 69.0979 16.454 69.2472 16.37C69.3965 16.2767 69.5459 16.1553 69.6952 16.006L69.8772 16.216C69.6999 16.524 69.4525 16.7667 69.1352 16.944C68.8179 17.112 68.4259 17.196 67.9592 17.196Z" fill="black"/>
<defs>
<filter id="filter0_d_2_44" x="0" y="0" width="98" height="33" filterUnits="userSpaceOnUse" color-interpolation-filters="sRGB">
<feFlood flood-opacity="0" result="BackgroundImageFix"/>
<feColorMatrix in="SourceAlpha" type="matrix" values="0 0 0 0 0 0 0 0 0 0 0 0 0 0 0 0 0 0 127 0" result="hardAlpha"/>
<feOffset dy="4"/>
<feGaussianBlur stdDeviation="2"/>
<feComposite in2="hardAlpha" operator="out"/>
<feColorMatrix type="matrix" values="0 0 0 0 0.223529 0 0 0 0 0.368627 0 0 0 0 0.4 0 0 0 0.5 0"/>
<feBlend mode="normal" in2="BackgroundImageFix" result="effect1_dropShadow_2_44"/>
<feBlend mode="normal" in="SourceGraphic" in2="effect1_dropShadow_2_44" result="shape"/>
</filter>
</defs>
</svg>
