<svg width="314" height="85" viewBox="0 0 314 85" fill="none" xmlns="http://www.w3.org/2000/svg">
<g filter="url(#filter0_d_2_23)">
<rect x="4" width="306" height="77" rx="26" fill="#4BA3C3"/>
</g>
<path d="M95.784 51.544C94.184 51.544 92.7653 51.256 91.528 50.68C90.312 50.104 89.352 49.1973 88.648 47.96C87.9653 46.7013 87.624 45.048 87.624 43V39.544C87.624 38.3493 87.624 37.144 87.624 35.928C87.624 34.712 87.6133 33.4853 87.592 32.248C87.592 31.416 87.1973 30.8933 86.408 30.68L85.704 30.52V29.848H94.344V30.52L93.448 30.712C92.6373 30.904 92.232 31.4373 92.232 32.312C92.2107 33.5067 92.2 34.712 92.2 35.928C92.2 37.1227 92.2 38.328 92.2 39.544V43.608C92.2 45.6773 92.616 47.1707 93.448 48.088C94.3013 49.0053 95.5067 49.464 97.064 49.464C98.7067 49.464 99.9867 48.9733 100.904 47.992C101.843 46.9893 102.312 45.5067 102.312 43.544V32.408C102.312 31.9813 102.227 31.608 102.056 31.288C101.885 30.968 101.587 30.7653 101.16 30.68L100.392 30.52V29.848H105.32V30.52L104.424 30.712C104.019 30.7973 103.741 30.9893 103.592 31.288C103.443 31.5867 103.368 31.9493 103.368 32.376V43.352C103.368 45.9973 102.675 48.024 101.288 49.432C99.9013 50.84 98.0667 51.544 95.784 51.544ZM105.235 58.392V57.784L105.651 57.656C106.077 57.5493 106.376 57.368 106.547 57.112C106.717 56.8773 106.803 56.536 106.803 56.088C106.803 55.2133 106.803 54.3813 106.803 53.592C106.824 52.824 106.835 52.0773 106.835 51.352V42.552C106.835 41.8907 106.835 41.3253 106.835 40.856C106.835 40.3653 106.824 39.8213 106.803 39.224C106.803 38.776 106.728 38.4347 106.579 38.2C106.429 37.944 106.141 37.7733 105.715 37.688L105.235 37.592V37.016L110.387 35.16L110.771 35.48L111.059 36.664C112.531 35.6613 114.195 35.16 116.051 35.16C117.864 35.16 119.315 35.8427 120.403 37.208C121.512 38.5733 122.067 40.5893 122.067 43.256C122.067 45.8373 121.459 47.8533 120.243 49.304C119.048 50.7333 117.416 51.448 115.347 51.448C114.515 51.448 113.725 51.3733 112.979 51.224C112.253 51.0747 111.603 50.8507 111.027 50.552V51.512C111.027 52.152 111.027 52.8453 111.027 53.592C111.048 54.3387 111.059 55.1493 111.059 56.024C111.059 56.8773 111.432 57.4107 112.179 57.624L112.786 57.784V58.392H105.235ZM113.843 50.168C114.973 50.168 115.859 49.6667 116.499 48.664C117.16 47.64 117.491 45.88 117.491 43.384C117.491 40.9093 117.181 39.1813 116.563 38.2C115.944 37.1973 115.069 36.696 113.939 36.696C113.533 36.696 113.096 36.76 112.627 36.888C112.157 37.016 111.656 37.2293 111.123 37.528V49.624C111.976 49.9867 112.883 50.168 113.843 50.168ZM123.455 51V50.392L123.935 50.264C124.639 50.0293 124.991 49.496 124.991 48.664C124.991 47.9387 124.991 47.2133 124.991 46.488C125.012 45.7413 125.023 45.0053 125.023 44.28V32.12C125.023 31.672 124.948 31.3413 124.799 31.128C124.649 30.8933 124.361 30.7227 123.935 30.616L123.455 30.488V29.88L129.055 28.536L129.471 28.824L129.343 33.336V48.664C129.364 49.0907 129.449 49.4427 129.599 49.72C129.769 49.976 130.057 50.1573 130.463 50.264L130.911 50.392V51H123.455ZM140.36 51.448C138.781 51.448 137.394 51.1173 136.2 50.456C135.026 49.7947 134.109 48.856 133.448 47.64C132.808 46.424 132.488 44.9733 132.488 43.288C132.488 41.6027 132.829 40.152 133.512 38.936C134.216 37.72 135.154 36.792 136.328 36.152C137.522 35.4907 138.866 35.16 140.36 35.16C141.853 35.16 143.186 35.4907 144.36 36.152C145.554 36.792 146.493 37.72 147.176 38.936C147.88 40.1307 148.232 41.5813 148.232 43.288C148.232 44.9733 147.901 46.4347 147.24 47.672C146.6 48.888 145.693 49.8267 144.52 50.488C143.346 51.128 141.96 51.448 140.36 51.448ZM140.36 50.552C141.128 50.552 141.746 50.3493 142.216 49.944C142.706 49.5173 143.058 48.7813 143.272 47.736C143.485 46.6907 143.592 45.2293 143.592 43.352C143.592 41.4533 143.485 39.9813 143.272 38.936C143.058 37.8693 142.706 37.1333 142.216 36.728C141.746 36.3013 141.128 36.088 140.36 36.088C139.592 36.088 138.973 36.3013 138.504 36.728C138.034 37.1333 137.682 37.8693 137.448 38.936C137.234 39.9813 137.128 41.4533 137.128 43.352C137.128 45.2293 137.234 46.6907 137.448 47.736C137.682 48.7813 138.034 49.5173 138.504 49.944C138.973 50.3493 139.592 50.552 140.36 50.552ZM154.187 51.448C152.971 51.448 151.936 51.1067 151.083 50.424C150.251 49.72 149.835 48.7173 149.835 47.416C149.835 46.392 150.326 45.4533 151.307 44.6C152.31 43.7253 153.878 43.0853 156.011 42.68C156.374 42.5947 156.79 42.52 157.259 42.456C157.75 42.3707 158.23 42.2853 158.699 42.2V39.928C158.699 38.4773 158.518 37.4747 158.155 36.92C157.792 36.3653 157.216 36.088 156.427 36.088H156.331C155.84 36.088 155.446 36.248 155.147 36.568C154.87 36.8667 154.688 37.368 154.603 38.072L154.507 38.488C154.443 39.3413 154.219 39.9707 153.835 40.376C153.451 40.76 152.971 40.952 152.395 40.952C151.862 40.952 151.414 40.792 151.051 40.472C150.71 40.1307 150.539 39.6933 150.539 39.16C150.539 38.2853 150.838 37.5493 151.435 36.952C152.032 36.3547 152.822 35.9067 153.803 35.608C154.806 35.3093 155.883 35.16 157.035 35.16C158.934 35.16 160.384 35.6187 161.387 36.536C162.39 37.4533 162.891 38.9467 162.891 41.016V48.152C162.891 49.0693 163.328 49.528 164.203 49.528H164.939L165.259 49.88C164.875 50.3707 164.448 50.744 163.979 51C163.51 51.2773 162.87 51.416 162.059 51.416C161.142 51.416 160.406 51.2027 159.851 50.776C159.318 50.328 158.966 49.7413 158.795 49.016C158.112 49.7413 157.44 50.328 156.779 50.776C156.118 51.224 155.254 51.448 154.187 51.448ZM156.043 49.4C156.47 49.4 156.875 49.304 157.259 49.112C157.643 48.92 158.123 48.6 158.699 48.152V43.032C158.144 43.1173 157.579 43.224 157.003 43.352C156.086 43.5653 155.339 43.96 154.763 44.536C154.208 45.112 153.931 45.8907 153.931 46.872C153.931 47.7253 154.123 48.3653 154.507 48.792C154.912 49.1973 155.424 49.4 156.043 49.4ZM172.705 51.448C171.446 51.448 170.315 51.1707 169.312 50.616C168.31 50.04 167.521 49.1653 166.945 47.992C166.39 46.7973 166.113 45.2827 166.113 43.448C166.113 41.6133 166.433 40.088 167.073 38.872C167.713 37.6347 168.566 36.7067 169.633 36.088C170.699 35.4693 171.873 35.16 173.153 35.16C173.921 35.16 174.657 35.256 175.361 35.448C176.065 35.6187 176.683 35.8853 177.217 36.248V32.088C177.217 31.64 177.142 31.32 176.993 31.128C176.865 30.9147 176.587 30.7547 176.161 30.648L175.521 30.52V29.912L181.089 28.536L181.505 28.824L181.377 33.336V48.728C181.377 49.1333 181.451 49.4747 181.601 49.752C181.75 50.008 182.017 50.1893 182.401 50.296L182.753 50.392V51L177.441 51.352L177.153 50.008C176.577 50.456 175.915 50.808 175.169 51.064C174.422 51.32 173.601 51.448 172.705 51.448ZM174.465 49.976C175.382 49.976 176.246 49.6773 177.057 49.08V37.176C176.267 36.6853 175.414 36.44 174.497 36.44C173.451 36.44 172.555 36.9947 171.809 38.104C171.062 39.192 170.689 40.952 170.689 43.384C170.689 45.816 171.041 47.5227 171.745 48.504C172.449 49.4853 173.355 49.976 174.465 49.976ZM191.203 51V50.36L202.371 30.808H196.419C195.757 30.808 195.224 30.968 194.819 31.288C194.413 31.608 194.061 32.056 193.763 32.632L192.419 35.16H191.555L191.779 29.848H207.363V30.488L196.195 50.04H203.011C203.672 50.04 204.195 49.88 204.579 49.56C204.963 49.2187 205.304 48.7493 205.603 48.152L206.915 45.688H207.779L207.555 51H191.203ZM212.822 33.4C212.118 33.4 211.52 33.176 211.03 32.728C210.539 32.28 210.294 31.7147 210.294 31.032C210.294 30.328 210.539 29.7627 211.03 29.336C211.52 28.888 212.118 28.664 212.822 28.664C213.526 28.664 214.123 28.888 214.614 29.336C215.104 29.7627 215.35 30.328 215.35 31.032C215.35 31.7147 215.104 32.28 214.614 32.728C214.123 33.176 213.526 33.4 212.822 33.4ZM209.142 51V50.392L209.622 50.264C210.048 50.136 210.336 49.944 210.486 49.688C210.635 49.432 210.72 49.0907 210.742 48.664V42.776C210.742 42.1147 210.742 41.5067 210.742 40.952C210.742 40.376 210.731 39.7893 210.71 39.192C210.71 38.7653 210.624 38.4347 210.454 38.2C210.304 37.944 210.016 37.7733 209.59 37.688L209.142 37.592V37.016L214.742 35.16L215.126 35.512L215.03 40.056V48.696C215.03 49.1227 215.104 49.464 215.254 49.72C215.424 49.976 215.712 50.168 216.118 50.296L216.47 50.392V51H209.142ZM217.735 58.392V57.784L218.151 57.656C218.577 57.5493 218.876 57.368 219.047 57.112C219.217 56.8773 219.303 56.536 219.303 56.088C219.303 55.2133 219.303 54.3813 219.303 53.592C219.324 52.824 219.335 52.0773 219.335 51.352V42.552C219.335 41.8907 219.335 41.3253 219.335 40.856C219.335 40.3653 219.324 39.8213 219.303 39.224C219.303 38.776 219.228 38.4347 219.079 38.2C218.929 37.944 218.641 37.7733 218.215 37.688L217.735 37.592V37.016L222.887 35.16L223.271 35.48L223.559 36.664C225.031 35.6613 226.695 35.16 228.551 35.16C230.364 35.16 231.815 35.8427 232.903 37.208C234.012 38.5733 234.567 40.5893 234.567 43.256C234.567 45.8373 233.959 47.8533 232.743 49.304C231.548 50.7333 229.916 51.448 227.847 51.448C227.015 51.448 226.225 51.3733 225.479 51.224C224.753 51.0747 224.103 50.8507 223.527 50.552V51.512C223.527 52.152 223.527 52.8453 223.527 53.592C223.548 54.3387 223.559 55.1493 223.559 56.024C223.559 56.8773 223.932 57.4107 224.679 57.624L225.286 57.784V58.392H217.735ZM226.343 50.168C227.473 50.168 228.359 49.6667 228.999 48.664C229.66 47.64 229.991 45.88 229.991 43.384C229.991 40.9093 229.681 39.1813 229.063 38.2C228.444 37.1973 227.569 36.696 226.439 36.696C226.033 36.696 225.596 36.76 225.127 36.888C224.657 37.016 224.156 37.2293 223.623 37.528V49.624C224.476 49.9867 225.383 50.168 226.343 50.168ZM243.142 51V50.328L243.75 50.168C244.177 50.04 244.454 49.848 244.582 49.592C244.71 49.336 244.785 48.984 244.806 48.536C244.828 47.32 244.838 46.0933 244.838 44.856C244.838 43.5973 244.838 42.3387 244.838 41.08V39.768C244.838 38.5307 244.838 37.2933 244.838 36.056C244.838 34.8187 244.828 33.5813 244.806 32.344C244.785 31.896 244.721 31.5547 244.614 31.32C244.508 31.064 244.252 30.872 243.846 30.744L243.142 30.52V29.848H258.534L258.758 35.256H257.894L256.23 32.088C256.017 31.6827 255.782 31.3733 255.526 31.16C255.27 30.9253 254.897 30.808 254.406 30.808H249.478C249.457 32.2373 249.436 33.7093 249.414 35.224C249.414 36.7173 249.414 38.2107 249.414 39.704H252.486C252.977 39.704 253.34 39.5973 253.574 39.384C253.809 39.1493 254.033 38.8293 254.246 38.424L254.886 37.24H255.59V43.096H254.886L254.246 41.944C254.012 41.5173 253.777 41.1973 253.542 40.984C253.329 40.7493 252.977 40.632 252.486 40.632H249.414C249.414 42.04 249.414 43.3947 249.414 44.696C249.414 45.976 249.425 47.2347 249.446 48.472C249.446 49.3467 249.841 49.8907 250.63 50.104L251.59 50.328V51H243.142ZM263.322 33.4C262.618 33.4 262.02 33.176 261.53 32.728C261.039 32.28 260.794 31.7147 260.794 31.032C260.794 30.328 261.039 29.7627 261.53 29.336C262.02 28.888 262.618 28.664 263.322 28.664C264.026 28.664 264.623 28.888 265.114 29.336C265.604 29.7627 265.85 30.328 265.85 31.032C265.85 31.7147 265.604 32.28 265.114 32.728C264.623 33.176 264.026 33.4 263.322 33.4ZM259.642 51V50.392L260.122 50.264C260.548 50.136 260.836 49.944 260.986 49.688C261.135 49.432 261.22 49.0907 261.242 48.664V42.776C261.242 42.1147 261.242 41.5067 261.242 40.952C261.242 40.376 261.231 39.7893 261.21 39.192C261.21 38.7653 261.124 38.4347 260.954 38.2C260.804 37.944 260.516 37.7733 260.09 37.688L259.642 37.592V37.016L265.242 35.16L265.626 35.512L265.53 40.056V48.696C265.53 49.1227 265.604 49.464 265.754 49.72C265.924 49.976 266.212 50.168 266.618 50.296L266.97 50.392V51H259.642ZM268.455 51V50.392L268.935 50.264C269.639 50.0293 269.991 49.496 269.991 48.664C269.991 47.9387 269.991 47.2133 269.991 46.488C270.012 45.7413 270.023 45.0053 270.023 44.28V32.12C270.023 31.672 269.948 31.3413 269.799 31.128C269.649 30.8933 269.361 30.7227 268.935 30.616L268.455 30.488V29.88L274.055 28.536L274.471 28.824L274.343 33.336V48.664C274.364 49.0907 274.449 49.4427 274.599 49.72C274.769 49.976 275.057 50.1573 275.463 50.264L275.911 50.392V51H268.455ZM285.36 35.16C286.704 35.16 287.856 35.4373 288.816 35.992C289.776 36.5467 290.512 37.3147 291.024 38.296C291.557 39.256 291.824 40.3653 291.824 41.624C291.824 41.9013 291.813 42.168 291.792 42.424C291.77 42.6587 291.728 42.8827 291.664 43.096H282.032C282.053 45.2933 282.458 46.872 283.248 47.832C284.058 48.792 285.232 49.272 286.768 49.272C287.834 49.272 288.698 49.1013 289.36 48.76C290.021 48.3973 290.629 47.896 291.184 47.256L291.696 47.736C291.056 48.9093 290.181 49.8267 289.072 50.488C287.984 51.128 286.682 51.448 285.168 51.448C283.653 51.448 282.32 51.128 281.168 50.488C280.016 49.848 279.109 48.9307 278.448 47.736C277.808 46.52 277.488 45.0693 277.488 43.384C277.488 41.6347 277.861 40.152 278.608 38.936C279.376 37.72 280.357 36.792 281.552 36.152C282.768 35.4907 284.037 35.16 285.36 35.16ZM285.2 36.088C284.581 36.088 284.037 36.2693 283.568 36.632C283.12 36.9733 282.757 37.592 282.48 38.488C282.224 39.3627 282.074 40.6 282.032 42.2H287.76C287.994 40.0453 287.909 38.488 287.504 37.528C287.098 36.568 286.33 36.088 285.2 36.088Z" fill="white"/>
<path d="M62 43V49.6667C62 50.5507 61.6488 51.3986 61.0237 52.0237C60.3986 52.6488 59.5507 53 58.6667 53H35.3333C34.4493 53 33.6014 52.6488 32.9763 52.0237C32.3512 51.3986 32 50.5507 32 49.6667V43M55.3333 31.3333L47 23M47 23L38.6667 31.3333M47 23V43" stroke="white" stroke-width="3.5" stroke-linecap="round" stroke-linejoin="round"/>
<defs>
<filter id="filter0_d_2_23" x="0" y="0" width="314" height="85" filterUnits="userSpaceOnUse" color-interpolation-filters="sRGB">
<feFlood flood-opacity="0" result="BackgroundImageFix"/>
<feColorMatrix in="SourceAlpha" type="matrix" values="0 0 0 0 0 0 0 0 0 0 0 0 0 0 0 0 0 0 127 0" result="hardAlpha"/>
<feOffset dy="4"/>
<feGaussianBlur stdDeviation="2"/>
<feComposite in2="hardAlpha" operator="out"/>
<feColorMatrix type="matrix" values="0 0 0 0 0.0901961 0 0 0 0 0.337255 0 0 0 0 0.462745 0 0 0 0.5 0"/>
<feBlend mode="normal" in2="BackgroundImageFix" result="effect1_dropShadow_2_23"/>
<feBlend mode="normal" in="SourceGraphic" in2="effect1_dropShadow_2_23" result="shape"/>
</filter>
</defs>
</svg>
