<svg width="98" height="33" viewBox="0 0 98 33" fill="none" xmlns="http://www.w3.org/2000/svg">
<g filter="url(#filter0_d_2_39)">
<rect x="4" width="90" height="25" rx="12.5" fill="#4BA3C3"/>
</g>
<path d="M14.322 17V16.706L14.602 16.622C14.798 16.5567 14.924 16.4727 14.98 16.37C15.036 16.258 15.064 16.104 15.064 15.908V8.824C15.064 8.63733 15.036 8.49267 14.98 8.39C14.924 8.278 14.8027 8.18933 14.616 8.124L14.322 8.04V7.746H17.794V8.04L17.528 8.124C17.3507 8.18933 17.2293 8.278 17.164 8.39C17.108 8.502 17.08 8.656 17.08 8.852V16.58H19.138C19.4553 16.58 19.6933 16.5007 19.852 16.342C20.0107 16.1833 20.16 15.9547 20.3 15.656L20.818 14.494H21.21L21.07 17H14.322ZM23.4785 9.3C23.1705 9.3 22.9092 9.202 22.6945 9.006C22.4799 8.81 22.3725 8.56267 22.3725 8.264C22.3725 7.956 22.4799 7.70867 22.6945 7.522C22.9092 7.326 23.1705 7.228 23.4785 7.228C23.7865 7.228 24.0479 7.326 24.2625 7.522C24.4772 7.70867 24.5845 7.956 24.5845 8.264C24.5845 8.56267 24.4772 8.81 24.2625 9.006C24.0479 9.202 23.7865 9.3 23.4785 9.3ZM21.8685 17V16.734L22.0785 16.678C22.2652 16.622 22.3912 16.538 22.4565 16.426C22.5219 16.314 22.5592 16.1647 22.5685 15.978V13.402C22.5685 13.1127 22.5685 12.8467 22.5685 12.604C22.5685 12.352 22.5639 12.0953 22.5545 11.834C22.5545 11.6473 22.5172 11.5027 22.4425 11.4C22.3772 11.288 22.2512 11.2133 22.0645 11.176L21.8685 11.134V10.882L24.3185 10.07L24.4865 10.224L24.4445 12.212V15.992C24.4445 16.1787 24.4772 16.328 24.5425 16.44C24.6172 16.552 24.7432 16.636 24.9205 16.692L25.0745 16.734V17H21.8685ZM28.7203 14.606C28.1043 14.606 27.577 14.5033 27.1383 14.298V14.802C27.1383 15.082 27.2783 15.25 27.5583 15.306L30.0503 15.768C30.5263 15.8613 30.9463 15.978 31.3103 16.118C31.6743 16.2487 31.959 16.44 32.1643 16.692C32.3697 16.9347 32.4723 17.266 32.4723 17.686C32.4723 18.134 32.323 18.5493 32.0243 18.932C31.735 19.324 31.301 19.6367 30.7223 19.87C30.153 20.1127 29.439 20.234 28.5803 20.234C27.843 20.234 27.255 20.1547 26.8163 19.996C26.387 19.8467 26.079 19.6507 25.8923 19.408C25.7057 19.1653 25.6123 18.904 25.6123 18.624C25.6123 18.288 25.7243 17.952 25.9483 17.616C26.1817 17.28 26.4803 17 26.8443 16.776C26.275 16.5613 25.9903 16.2207 25.9903 15.754C25.9903 15.5767 26.0323 15.4133 26.1163 15.264C26.2003 15.1147 26.303 14.9653 26.4243 14.816L26.9283 14.186C26.2563 13.794 25.9203 13.1827 25.9203 12.352C25.9203 11.6707 26.1583 11.12 26.6343 10.7C27.1197 10.28 27.815 10.07 28.7203 10.07C29.6257 10.07 30.3257 10.28 30.8203 10.7C31.119 10.6533 31.399 10.5787 31.6603 10.476C31.9217 10.3733 32.1643 10.2333 32.3883 10.056L32.5843 10.196V10.98H31.0723C31.371 11.3533 31.5203 11.8107 31.5203 12.352C31.5203 13.0147 31.2777 13.556 30.7923 13.976C30.3163 14.396 29.6257 14.606 28.7203 14.606ZM28.6923 14.228C29.0843 14.228 29.369 14.0787 29.5463 13.78C29.733 13.472 29.8263 12.982 29.8263 12.31C29.8263 11.6473 29.7377 11.1713 29.5603 10.882C29.383 10.5927 29.1077 10.448 28.7343 10.448C28.361 10.448 28.081 10.5973 27.8943 10.896C27.717 11.1853 27.6283 11.666 27.6283 12.338C27.6283 13.01 27.7123 13.4953 27.8803 13.794C28.0483 14.0833 28.319 14.228 28.6923 14.228ZM26.7043 18.218C26.7043 18.7313 26.8677 19.114 27.1943 19.366C27.521 19.6273 28.039 19.758 28.7483 19.758C29.5323 19.758 30.111 19.6273 30.4843 19.366C30.867 19.114 31.0583 18.778 31.0583 18.358C31.0583 18.0967 30.9603 17.8913 30.7643 17.742C30.5777 17.5927 30.2603 17.476 29.8123 17.392L27.3063 16.902C27.269 16.8927 27.2317 16.8833 27.1943 16.874C27.0543 17.0607 26.9377 17.2753 26.8443 17.518C26.751 17.7607 26.7043 17.994 26.7043 18.218ZM33.0388 17V16.72L33.2208 16.664C33.5568 16.5613 33.7248 16.328 33.7248 15.964V8.754C33.7248 8.558 33.6921 8.41333 33.6268 8.32C33.5615 8.21733 33.4355 8.14267 33.2488 8.096L33.0388 8.04V7.774L35.4048 7.172L35.6288 7.298L35.5728 9.272V11.064C35.8995 10.7933 36.2541 10.56 36.6368 10.364C37.0288 10.168 37.4488 10.07 37.8968 10.07C38.5128 10.07 38.9935 10.2427 39.3388 10.588C39.6935 10.9333 39.8708 11.4653 39.8708 12.184V15.978C39.8708 16.1647 39.9081 16.314 39.9828 16.426C40.0575 16.538 40.1881 16.622 40.3748 16.678L40.5008 16.72V17H37.3088V16.72L37.4768 16.664C37.8128 16.5707 37.9808 16.3373 37.9808 15.964V11.918C37.9808 11.5353 37.9155 11.2693 37.7848 11.12C37.6541 10.9707 37.4255 10.896 37.0988 10.896C36.8748 10.896 36.6368 10.938 36.3848 11.022C36.1421 11.106 35.8855 11.246 35.6148 11.442V15.992C35.6148 16.1787 35.6521 16.328 35.7268 16.44C35.8015 16.552 35.9275 16.6313 36.1048 16.678L36.2308 16.72V17H33.0388ZM43.6272 17.196C43.0485 17.196 42.5912 17.056 42.2552 16.776C41.9285 16.4867 41.7652 16.02 41.7652 15.376C41.7652 15.152 41.7652 14.942 41.7652 14.746C41.7745 14.5407 41.7792 14.3027 41.7792 14.032V10.714H40.7852V10.406L41.1632 10.35C41.4338 10.3033 41.6625 10.2193 41.8492 10.098C42.0452 9.97667 42.2225 9.80867 42.3812 9.594L43.2912 8.334H43.7112L43.6692 10.28H45.2652V10.714H43.6552V15.488C43.6552 15.824 43.7252 16.076 43.8652 16.244C44.0145 16.412 44.1965 16.496 44.4112 16.496C44.5978 16.496 44.7658 16.454 44.9152 16.37C45.0645 16.2767 45.2138 16.1553 45.3632 16.006L45.5452 16.216C45.3678 16.524 45.1205 16.7667 44.8032 16.944C44.4858 17.112 44.0938 17.196 43.6272 17.196ZM49.0889 17V16.692L49.3689 16.608C49.5463 16.552 49.6676 16.4633 49.7329 16.342C49.7983 16.2113 49.8309 16.0433 49.8309 15.838V8.908C49.8309 8.72133 49.8076 8.572 49.7609 8.46C49.7143 8.33867 49.5976 8.24533 49.4109 8.18L49.0889 8.054V7.746H51.7629L54.3949 14.592L56.8729 7.746H59.6029V8.054L59.3789 8.124C59.2016 8.18 59.0803 8.26867 59.0149 8.39C58.9496 8.502 58.9169 8.65133 58.9169 8.838C58.9076 9.37933 58.9029 9.92067 58.9029 10.462C58.9029 10.994 58.9029 11.5353 58.9029 12.086V12.66C58.9029 13.2013 58.9029 13.7427 58.9029 14.284C58.9029 14.8253 58.9076 15.362 58.9169 15.894C58.9169 16.09 58.9403 16.2393 58.9869 16.342C59.0336 16.4447 59.1456 16.5287 59.3229 16.594L59.6029 16.692V17H56.2009V16.692L56.5089 16.594C56.6863 16.5287 56.7936 16.4447 56.8309 16.342C56.8776 16.23 56.9009 16.0807 56.9009 15.894V12.856L56.9289 9.104L54.0729 17H53.2889L50.2789 9.188L50.3349 12.38V15.852C50.3349 16.0573 50.3629 16.2207 50.4189 16.342C50.4749 16.4633 50.5916 16.5473 50.7689 16.594L51.0489 16.692V17H49.0889ZM63.3624 17.196C62.6717 17.196 62.065 17.0513 61.5424 16.762C61.029 16.4727 60.6277 16.062 60.3384 15.53C60.0584 14.998 59.9184 14.3633 59.9184 13.626C59.9184 12.8887 60.0677 12.254 60.3664 11.722C60.6744 11.19 61.085 10.784 61.5984 10.504C62.121 10.2147 62.709 10.07 63.3624 10.07C64.0157 10.07 64.599 10.2147 65.1124 10.504C65.635 10.784 66.0457 11.19 66.3444 11.722C66.6524 12.2447 66.8064 12.8793 66.8064 13.626C66.8064 14.3633 66.6617 15.0027 66.3724 15.544C66.0924 16.076 65.6957 16.4867 65.1824 16.776C64.669 17.056 64.0624 17.196 63.3624 17.196ZM63.3624 16.804C63.6984 16.804 63.969 16.7153 64.1744 16.538C64.389 16.3513 64.543 16.0293 64.6364 15.572C64.7297 15.1147 64.7764 14.4753 64.7764 13.654C64.7764 12.8233 64.7297 12.1793 64.6364 11.722C64.543 11.2553 64.389 10.9333 64.1744 10.756C63.969 10.5693 63.6984 10.476 63.3624 10.476C63.0264 10.476 62.7557 10.5693 62.5504 10.756C62.345 10.9333 62.191 11.2553 62.0884 11.722C61.995 12.1793 61.9484 12.8233 61.9484 13.654C61.9484 14.4753 61.995 15.1147 62.0884 15.572C62.191 16.0293 62.345 16.3513 62.5504 16.538C62.7557 16.7153 63.0264 16.804 63.3624 16.804ZM70.4586 17.196C69.9079 17.196 69.4133 17.0747 68.9746 16.832C68.5359 16.58 68.1906 16.1973 67.9386 15.684C67.6959 15.1613 67.5746 14.4987 67.5746 13.696C67.5746 12.8933 67.7146 12.226 67.9946 11.694C68.2746 11.1527 68.6479 10.7467 69.1146 10.476C69.5813 10.2053 70.0946 10.07 70.6546 10.07C70.9906 10.07 71.3126 10.112 71.6206 10.196C71.9286 10.2707 72.1993 10.3873 72.4326 10.546V8.726C72.4326 8.53 72.3999 8.39 72.3346 8.306C72.2786 8.21267 72.1573 8.14267 71.9706 8.096L71.6906 8.04V7.774L74.1266 7.172L74.3086 7.298L74.2526 9.272V16.006C74.2526 16.1833 74.2853 16.3327 74.3506 16.454C74.4159 16.566 74.5326 16.6453 74.7006 16.692L74.8546 16.734V17L72.5306 17.154L72.4046 16.566C72.1526 16.762 71.8633 16.916 71.5366 17.028C71.2099 17.14 70.8506 17.196 70.4586 17.196ZM71.2286 16.552C71.6299 16.552 72.0079 16.4213 72.3626 16.16V10.952C72.0173 10.7373 71.6439 10.63 71.2426 10.63C70.7853 10.63 70.3933 10.8727 70.0666 11.358C69.7399 11.834 69.5766 12.604 69.5766 13.668C69.5766 14.732 69.7306 15.4787 70.0386 15.908C70.3466 16.3373 70.7433 16.552 71.2286 16.552ZM78.9893 10.07C79.5773 10.07 80.0813 10.1913 80.5013 10.434C80.9213 10.6767 81.2433 11.0127 81.4673 11.442C81.7006 11.862 81.8173 12.3473 81.8173 12.898C81.8173 13.0193 81.8126 13.136 81.8033 13.248C81.794 13.3507 81.7753 13.4487 81.7473 13.542H77.5333C77.5426 14.5033 77.72 15.194 78.0653 15.614C78.42 16.034 78.9333 16.244 79.6053 16.244C80.072 16.244 80.45 16.1693 80.7393 16.02C81.0286 15.8613 81.2946 15.642 81.5373 15.362L81.7613 15.572C81.4813 16.0853 81.0986 16.4867 80.6133 16.776C80.1373 17.056 79.568 17.196 78.9053 17.196C78.2426 17.196 77.6593 17.056 77.1553 16.776C76.6513 16.496 76.2546 16.0947 75.9653 15.572C75.6853 15.04 75.5453 14.4053 75.5453 13.668C75.5453 12.9027 75.7086 12.254 76.0353 11.722C76.3713 11.19 76.8006 10.784 77.3233 10.504C77.8553 10.2147 78.4106 10.07 78.9893 10.07ZM78.9193 10.476C78.6486 10.476 78.4106 10.5553 78.2053 10.714C78.0093 10.8633 77.8506 11.134 77.7293 11.526C77.6173 11.9087 77.552 12.45 77.5333 13.15H80.0393C80.142 12.2073 80.1046 11.526 79.9273 11.106C79.75 10.686 79.414 10.476 78.9193 10.476Z" fill="white"/>
<defs>
<filter id="filter0_d_2_39" x="0" y="0" width="98" height="33" filterUnits="userSpaceOnUse" color-interpolation-filters="sRGB">
<feFlood flood-opacity="0" result="BackgroundImageFix"/>
<feColorMatrix in="SourceAlpha" type="matrix" values="0 0 0 0 0 0 0 0 0 0 0 0 0 0 0 0 0 0 127 0" result="hardAlpha"/>
<feOffset dy="4"/>
<feGaussianBlur stdDeviation="2"/>
<feComposite in2="hardAlpha" operator="out"/>
<feColorMatrix type="matrix" values="0 0 0 0 0.0901961 0 0 0 0 0.337255 0 0 0 0 0.462745 0 0 0 0.5 0"/>
<feBlend mode="normal" in2="BackgroundImageFix" result="effect1_dropShadow_2_39"/>
<feBlend mode="normal" in="SourceGraphic" in2="effect1_dropShadow_2_39" result="shape"/>
</filter>
</defs>
</svg>
