<svg width="98" height="33" viewBox="0 0 98 33" fill="none" xmlns="http://www.w3.org/2000/svg">
<g filter="url(#filter0_d_2_39)">
<g filter="url(#filter1_d_2_39)">
<rect x="4" width="90" height="25" rx="12.5" fill="#26A96C"/>
</g>
<path d="M14.322 17V16.706L14.602 16.608C14.9007 16.5147 15.05 16.2813 15.05 15.908C15.0593 15.376 15.064 14.8347 15.064 14.284C15.064 13.724 15.064 13.1547 15.064 12.576V12.086C15.064 11.5447 15.064 11.0033 15.064 10.462C15.064 9.92067 15.0593 9.37933 15.05 8.838C15.05 8.45533 14.9053 8.21733 14.616 8.124L14.322 8.04V7.746H18.004C18.984 7.746 19.8287 7.928 20.538 8.292C21.2473 8.656 21.7933 9.18333 22.176 9.874C22.5587 10.5553 22.75 11.3813 22.75 12.352C22.75 13.3413 22.54 14.1813 22.12 14.872C21.7093 15.5627 21.126 16.09 20.37 16.454C19.6233 16.818 18.7507 17 17.752 17H14.322ZM17.08 16.594H17.794C18.4567 16.594 18.9933 16.4633 19.404 16.202C19.824 15.9407 20.132 15.502 20.328 14.886C20.524 14.2607 20.622 13.4207 20.622 12.366C20.622 11.3113 20.524 10.476 20.328 9.86C20.132 9.244 19.8287 8.80533 19.418 8.544C19.0167 8.28267 18.494 8.152 17.85 8.152H17.08C17.0707 8.796 17.066 9.44933 17.066 10.112C17.066 10.7653 17.066 11.4233 17.066 12.086V12.562C17.066 13.262 17.066 13.948 17.066 14.62C17.066 15.2827 17.0707 15.9407 17.08 16.594ZM25.2381 17.196C24.7061 17.196 24.2534 17.0467 23.8801 16.748C23.5161 16.44 23.3341 16.0013 23.3341 15.432C23.3341 14.984 23.5487 14.5733 23.9781 14.2C24.4167 13.8173 25.1027 13.5373 26.0361 13.36C26.1947 13.3227 26.3767 13.29 26.5821 13.262C26.7967 13.2247 27.0067 13.1873 27.2121 13.15V12.156C27.2121 11.5213 27.1327 11.0827 26.9741 10.84C26.8154 10.5973 26.5634 10.476 26.2181 10.476H26.1761C25.9614 10.476 25.7887 10.546 25.6581 10.686C25.5367 10.8167 25.4574 11.036 25.4201 11.344L25.3781 11.526C25.3501 11.8993 25.2521 12.1747 25.0841 12.352C24.9161 12.52 24.7061 12.604 24.4541 12.604C24.2207 12.604 24.0247 12.534 23.8661 12.394C23.7167 12.2447 23.6421 12.0533 23.6421 11.82C23.6421 11.4373 23.7727 11.1153 24.0341 10.854C24.2954 10.5927 24.6407 10.3967 25.0701 10.266C25.5087 10.1353 25.9801 10.07 26.4841 10.07C27.3147 10.07 27.9494 10.2707 28.3881 10.672C28.8267 11.0733 29.0461 11.7267 29.0461 12.632V15.754C29.0461 16.1553 29.2374 16.356 29.6201 16.356H29.9421L30.0821 16.51C29.9141 16.7247 29.7274 16.888 29.5221 17C29.3167 17.1213 29.0367 17.182 28.6821 17.182C28.2807 17.182 27.9587 17.0887 27.7161 16.902C27.4827 16.706 27.3287 16.4493 27.2541 16.132C26.9554 16.4493 26.6614 16.706 26.3721 16.902C26.0827 17.098 25.7047 17.196 25.2381 17.196ZM26.0501 16.3C26.2367 16.3 26.4141 16.258 26.5821 16.174C26.7501 16.09 26.9601 15.95 27.2121 15.754V13.514C26.9694 13.5513 26.7221 13.598 26.4701 13.654C26.0687 13.7473 25.7421 13.92 25.4901 14.172C25.2474 14.424 25.1261 14.7647 25.1261 15.194C25.1261 15.5673 25.2101 15.8473 25.3781 16.034C25.5554 16.2113 25.7794 16.3 26.0501 16.3ZM30.3585 17V16.734L30.5685 16.664C30.7551 16.6173 30.8811 16.538 30.9465 16.426C31.0211 16.314 31.0585 16.1647 31.0585 15.978V11.876C31.0491 11.6707 31.0118 11.5167 30.9465 11.414C30.8811 11.302 30.7551 11.2273 30.5685 11.19L30.3585 11.134V10.882L32.6405 10.07L32.8085 10.224L32.9345 11.456V11.554C33.0745 11.2927 33.2518 11.05 33.4665 10.826C33.6811 10.602 33.9145 10.42 34.1665 10.28C34.4185 10.14 34.6705 10.07 34.9225 10.07C35.2771 10.07 35.5431 10.1633 35.7205 10.35C35.8978 10.5367 35.9865 10.7747 35.9865 11.064C35.9865 11.3813 35.8978 11.624 35.7205 11.792C35.5431 11.9507 35.3285 12.03 35.0765 12.03C34.7031 12.03 34.3811 11.862 34.1105 11.526L34.0825 11.498C33.9891 11.386 33.8818 11.3253 33.7605 11.316C33.6485 11.2973 33.5365 11.3533 33.4245 11.484C33.3311 11.5773 33.2425 11.6893 33.1585 11.82C33.0838 11.9413 33.0138 12.086 32.9485 12.254V15.922C32.9485 16.0993 32.9858 16.2487 33.0605 16.37C33.1351 16.482 33.2611 16.5613 33.4385 16.608L33.8585 16.734V17H30.3585ZM36.197 17V16.734L36.407 16.664C36.7243 16.5707 36.883 16.342 36.883 15.978V8.726C36.883 8.53933 36.8457 8.39933 36.771 8.306C36.6963 8.20333 36.5657 8.12867 36.379 8.082L36.197 8.026V7.76L38.647 7.172L38.829 7.298L38.773 9.272V15.978C38.773 16.3513 38.9317 16.5847 39.249 16.678L39.445 16.734V17H36.197ZM41.321 17L38.787 13.5L41.265 11.204C41.3863 11.1013 41.4563 10.9893 41.475 10.868C41.4937 10.7373 41.4143 10.6487 41.237 10.602L41.013 10.546V10.28H43.197V10.546L42.791 10.644C42.5857 10.7 42.4177 10.7793 42.287 10.882C42.1563 10.9753 42.0023 11.1013 41.825 11.26L40.285 12.702L42.665 15.964C42.8143 16.16 42.9497 16.314 43.071 16.426C43.1923 16.5287 43.3557 16.6173 43.561 16.692L43.701 16.734V17H41.321ZM47.2569 17V16.692L47.5369 16.608C47.7142 16.552 47.8356 16.4633 47.9009 16.342C47.9662 16.2113 47.9989 16.0433 47.9989 15.838V8.908C47.9989 8.72133 47.9756 8.572 47.9289 8.46C47.8822 8.33867 47.7656 8.24533 47.5789 8.18L47.2569 8.054V7.746H49.9309L52.5629 14.592L55.0409 7.746H57.7709V8.054L57.5469 8.124C57.3696 8.18 57.2482 8.26867 57.1829 8.39C57.1176 8.502 57.0849 8.65133 57.0849 8.838C57.0756 9.37933 57.0709 9.92067 57.0709 10.462C57.0709 10.994 57.0709 11.5353 57.0709 12.086V12.66C57.0709 13.2013 57.0709 13.7427 57.0709 14.284C57.0709 14.8253 57.0756 15.362 57.0849 15.894C57.0849 16.09 57.1082 16.2393 57.1549 16.342C57.2016 16.4447 57.3136 16.5287 57.4909 16.594L57.7709 16.692V17H54.3689V16.692L54.6769 16.594C54.8542 16.5287 54.9616 16.4447 54.9989 16.342C55.0456 16.23 55.0689 16.0807 55.0689 15.894V12.856L55.0969 9.104L52.2409 17H51.4569L48.4469 9.188L48.5029 12.38V15.852C48.5029 16.0573 48.5309 16.2207 48.5869 16.342C48.6429 16.4633 48.7596 16.5473 48.9369 16.594L49.2169 16.692V17H47.2569ZM61.5303 17.196C60.8397 17.196 60.233 17.0513 59.7103 16.762C59.197 16.4727 58.7957 16.062 58.5063 15.53C58.2263 14.998 58.0863 14.3633 58.0863 13.626C58.0863 12.8887 58.2357 12.254 58.5343 11.722C58.8423 11.19 59.253 10.784 59.7663 10.504C60.289 10.2147 60.877 10.07 61.5303 10.07C62.1837 10.07 62.767 10.2147 63.2803 10.504C63.803 10.784 64.2137 11.19 64.5123 11.722C64.8203 12.2447 64.9743 12.8793 64.9743 13.626C64.9743 14.3633 64.8297 15.0027 64.5403 15.544C64.2603 16.076 63.8637 16.4867 63.3503 16.776C62.837 17.056 62.2303 17.196 61.5303 17.196ZM61.5303 16.804C61.8663 16.804 62.137 16.7153 62.3423 16.538C62.557 16.3513 62.711 16.0293 62.8043 15.572C62.8977 15.1147 62.9443 14.4753 62.9443 13.654C62.9443 12.8233 62.8977 12.1793 62.8043 11.722C62.711 11.2553 62.557 10.9333 62.3423 10.756C62.137 10.5693 61.8663 10.476 61.5303 10.476C61.1943 10.476 60.9237 10.5693 60.7183 10.756C60.513 10.9333 60.359 11.2553 60.2563 11.722C60.163 12.1793 60.1163 12.8233 60.1163 13.654C60.1163 14.4753 60.163 15.1147 60.2563 15.572C60.359 16.0293 60.513 16.3513 60.7183 16.538C60.9237 16.7153 61.1943 16.804 61.5303 16.804ZM68.6266 17.196C68.0759 17.196 67.5812 17.0747 67.1426 16.832C66.7039 16.58 66.3586 16.1973 66.1066 15.684C65.8639 15.1613 65.7426 14.4987 65.7426 13.696C65.7426 12.8933 65.8826 12.226 66.1626 11.694C66.4426 11.1527 66.8159 10.7467 67.2826 10.476C67.7492 10.2053 68.2626 10.07 68.8226 10.07C69.1586 10.07 69.4806 10.112 69.7886 10.196C70.0966 10.2707 70.3672 10.3873 70.6006 10.546V8.726C70.6006 8.53 70.5679 8.39 70.5026 8.306C70.4466 8.21267 70.3252 8.14267 70.1386 8.096L69.8586 8.04V7.774L72.2946 7.172L72.4766 7.298L72.4206 9.272V16.006C72.4206 16.1833 72.4532 16.3327 72.5186 16.454C72.5839 16.566 72.7006 16.6453 72.8686 16.692L73.0226 16.734V17L70.6986 17.154L70.5726 16.566C70.3206 16.762 70.0312 16.916 69.7046 17.028C69.3779 17.14 69.0186 17.196 68.6266 17.196ZM69.3966 16.552C69.7979 16.552 70.1759 16.4213 70.5306 16.16V10.952C70.1852 10.7373 69.8119 10.63 69.4106 10.63C68.9532 10.63 68.5612 10.8727 68.2346 11.358C67.9079 11.834 67.7446 12.604 67.7446 13.668C67.7446 14.732 67.8986 15.4787 68.2066 15.908C68.5146 16.3373 68.9112 16.552 69.3966 16.552ZM77.1573 10.07C77.7453 10.07 78.2493 10.1913 78.6693 10.434C79.0893 10.6767 79.4113 11.0127 79.6353 11.442C79.8686 11.862 79.9853 12.3473 79.9853 12.898C79.9853 13.0193 79.9806 13.136 79.9713 13.248C79.9619 13.3507 79.9433 13.4487 79.9153 13.542H75.7013C75.7106 14.5033 75.8879 15.194 76.2333 15.614C76.5879 16.034 77.1013 16.244 77.7733 16.244C78.2399 16.244 78.6179 16.1693 78.9073 16.02C79.1966 15.8613 79.4626 15.642 79.7053 15.362L79.9293 15.572C79.6493 16.0853 79.2666 16.4867 78.7813 16.776C78.3053 17.056 77.7359 17.196 77.0733 17.196C76.4106 17.196 75.8273 17.056 75.3233 16.776C74.8193 16.496 74.4226 16.0947 74.1333 15.572C73.8533 15.04 73.7133 14.4053 73.7133 13.668C73.7133 12.9027 73.8766 12.254 74.2033 11.722C74.5393 11.19 74.9686 10.784 75.4913 10.504C76.0233 10.2147 76.5786 10.07 77.1573 10.07ZM77.0873 10.476C76.8166 10.476 76.5786 10.5553 76.3733 10.714C76.1773 10.8633 76.0186 11.134 75.8973 11.526C75.7853 11.9087 75.7199 12.45 75.7013 13.15H78.2073C78.3099 12.2073 78.2726 11.526 78.0953 11.106C77.9179 10.686 77.5819 10.476 77.0873 10.476Z" fill="black"/>
</g>
<defs>
<filter id="filter0_d_2_39" x="0" y="0" width="98" height="33" filterUnits="userSpaceOnUse" color-interpolation-filters="sRGB">
<feFlood flood-opacity="0" result="BackgroundImageFix"/>
<feColorMatrix in="SourceAlpha" type="matrix" values="0 0 0 0 0 0 0 0 0 0 0 0 0 0 0 0 0 0 127 0" result="hardAlpha"/>
<feOffset dy="4"/>
<feGaussianBlur stdDeviation="2"/>
<feComposite in2="hardAlpha" operator="out"/>
<feColorMatrix type="matrix" values="0 0 0 0 0 0 0 0 0 0 0 0 0 0 0 0 0 0 0.25 0"/>
<feBlend mode="normal" in2="BackgroundImageFix" result="effect1_dropShadow_2_39"/>
<feBlend mode="normal" in="SourceGraphic" in2="effect1_dropShadow_2_39" result="shape"/>
</filter>
<filter id="filter1_d_2_39" x="0" y="0" width="98" height="33" filterUnits="userSpaceOnUse" color-interpolation-filters="sRGB">
<feFlood flood-opacity="0" result="BackgroundImageFix"/>
<feColorMatrix in="SourceAlpha" type="matrix" values="0 0 0 0 0 0 0 0 0 0 0 0 0 0 0 0 0 0 127 0" result="hardAlpha"/>
<feOffset dy="4"/>
<feGaussianBlur stdDeviation="2"/>
<feComposite in2="hardAlpha" operator="out"/>
<feColorMatrix type="matrix" values="0 0 0 0 0.223529 0 0 0 0 0.368627 0 0 0 0 0.4 0 0 0 0.5 0"/>
<feBlend mode="normal" in2="BackgroundImageFix" result="effect1_dropShadow_2_39"/>
<feBlend mode="normal" in="SourceGraphic" in2="effect1_dropShadow_2_39" result="shape"/>
</filter>
</defs>
</svg>
