<svg width="98" height="33" viewBox="0 0 98 33" fill="none" xmlns="http://www.w3.org/2000/svg">
<g filter="url(#filter0_d_2_44)">
<rect x="4" width="90" height="25" rx="12.5" fill="#4BA3C3"/>
</g>
<path d="M27.304 17.238C26.7907 17.238 26.268 17.1727 25.736 17.042C25.2133 16.9207 24.7747 16.7573 24.42 16.552L24.504 14.606H24.91L25.344 15.572C25.4747 15.8427 25.61 16.0667 25.75 16.244C25.89 16.4213 26.0767 16.5567 26.31 16.65C26.4687 16.7153 26.618 16.762 26.758 16.79C26.9073 16.8087 27.0707 16.818 27.248 16.818C27.8173 16.818 28.2653 16.6733 28.592 16.384C28.928 16.0853 29.096 15.6933 29.096 15.208C29.096 14.7693 28.9793 14.424 28.746 14.172C28.522 13.92 28.158 13.6773 27.654 13.444L27.08 13.192C26.296 12.8467 25.6753 12.4453 25.218 11.988C24.77 11.5307 24.546 10.924 24.546 10.168C24.546 9.608 24.686 9.132 24.966 8.74C25.2553 8.33867 25.652 8.03067 26.156 7.816C26.66 7.60133 27.248 7.494 27.92 7.494C28.4147 7.494 28.8767 7.55933 29.306 7.69C29.7447 7.82067 30.1273 7.998 30.454 8.222L30.356 9.958H29.95L29.432 8.908C29.2827 8.6 29.138 8.38067 28.998 8.25C28.8673 8.11 28.704 8.02133 28.508 7.984C28.396 7.96533 28.298 7.95133 28.214 7.942C28.1393 7.93267 28.0367 7.928 27.906 7.928C27.4487 7.928 27.052 8.06333 26.716 8.334C26.3893 8.59533 26.226 8.95933 26.226 9.426C26.226 9.874 26.352 10.238 26.604 10.518C26.856 10.798 27.22 11.0453 27.696 11.26L28.326 11.526C29.2313 11.918 29.88 12.338 30.272 12.786C30.664 13.2247 30.86 13.7893 30.86 14.48C30.86 15.3013 30.5473 15.9687 29.922 16.482C29.306 16.986 28.4333 17.238 27.304 17.238ZM33.923 17.196C33.559 17.196 33.2277 17.1307 32.929 17C32.6304 16.86 32.3924 16.636 32.215 16.328C32.047 16.0107 31.9677 15.5953 31.977 15.082L32.019 11.568C32.019 11.3627 31.9864 11.2133 31.921 11.12C31.8557 11.0267 31.739 10.9613 31.571 10.924L31.403 10.868V10.616L33.797 10.154L33.951 10.308L33.881 12.282V15.46C33.881 15.7773 33.965 16.0107 34.133 16.16C34.3104 16.3 34.5297 16.37 34.791 16.37C35.0617 16.37 35.3044 16.3327 35.519 16.258C35.743 16.174 35.9717 16.0527 36.205 15.894L36.247 11.582C36.247 11.3673 36.2144 11.218 36.149 11.134C36.093 11.05 35.981 10.9847 35.813 10.938L35.659 10.896V10.644L37.997 10.154L38.151 10.308L38.109 12.282V15.95C38.109 16.146 38.1324 16.3047 38.179 16.426C38.235 16.538 38.3517 16.622 38.529 16.678L38.711 16.734V17L36.345 17.14L36.219 16.258C35.9017 16.5287 35.5564 16.7527 35.183 16.93C34.8097 17.1073 34.3897 17.196 33.923 17.196ZM41.6024 17.182L39.3064 17V16.734L39.4464 16.706C39.8104 16.622 39.9924 16.3887 39.9924 16.006V8.726C39.9924 8.53933 39.955 8.39467 39.8804 8.292C39.815 8.18933 39.689 8.11467 39.5024 8.068L39.3204 8.026V7.774L41.7144 7.172L41.8964 7.298L41.8404 9.272V10.742C42.503 10.294 43.217 10.07 43.9824 10.07C44.7664 10.07 45.415 10.3593 45.9284 10.938C46.4417 11.5073 46.6984 12.3893 46.6984 13.584C46.6984 14.3773 46.5677 15.0447 46.3064 15.586C46.045 16.118 45.695 16.5193 45.2564 16.79C44.8177 17.0607 44.3324 17.196 43.8004 17.196C43.4457 17.196 43.091 17.1493 42.7364 17.056C42.391 16.9627 42.083 16.818 41.8124 16.622L41.6024 17.182ZM43.1424 16.58C43.4504 16.58 43.721 16.4913 43.9544 16.314C44.1877 16.1367 44.3697 15.8333 44.5004 15.404C44.631 14.9747 44.6964 14.3867 44.6964 13.64C44.6964 12.8933 44.6357 12.31 44.5144 11.89C44.393 11.47 44.2157 11.176 43.9824 11.008C43.7584 10.84 43.4877 10.756 43.1704 10.756C42.7504 10.756 42.321 10.8773 41.8824 11.12V16.23C42.265 16.4633 42.685 16.58 43.1424 16.58ZM47.3448 17V16.72L47.6528 16.636C47.8021 16.5893 47.9001 16.524 47.9468 16.44C47.9934 16.3467 48.0214 16.2253 48.0308 16.076V13.304C48.0308 12.996 48.0308 12.7347 48.0308 12.52C48.0308 12.3053 48.0261 12.0533 48.0168 11.764C48.0168 11.6053 47.9934 11.484 47.9468 11.4C47.9001 11.3067 47.7974 11.2413 47.6388 11.204L47.3448 11.134V10.882L49.6128 10.07L49.7808 10.224L49.8788 11.162C50.2054 10.8633 50.5694 10.6067 50.9708 10.392C51.3721 10.1773 51.7828 10.07 52.2028 10.07C52.6694 10.07 53.0334 10.1633 53.2948 10.35C53.5561 10.5367 53.7568 10.8213 53.8968 11.204C54.2514 10.8493 54.6434 10.574 55.0728 10.378C55.5021 10.1727 55.9268 10.07 56.3468 10.07C56.9814 10.07 57.4574 10.2287 57.7748 10.546C58.0921 10.8633 58.2508 11.3627 58.2508 12.044V16.09C58.2508 16.3887 58.3814 16.5753 58.6428 16.65L58.9088 16.72V17H55.7588V16.72L56.0108 16.65C56.2628 16.566 56.3888 16.3747 56.3888 16.076V11.974C56.3888 11.5727 56.3141 11.302 56.1648 11.162C56.0248 11.0127 55.7914 10.938 55.4648 10.938C55.2128 10.938 54.9748 10.9893 54.7508 11.092C54.5268 11.1947 54.2794 11.3533 54.0088 11.568C54.0648 11.848 54.0928 12.17 54.0928 12.534V16.09C54.1021 16.2487 54.1301 16.3747 54.1768 16.468C54.2328 16.552 54.3354 16.6127 54.4848 16.65L54.7228 16.72V17H51.5588V16.72L51.8528 16.636C52.0021 16.5893 52.1001 16.524 52.1468 16.44C52.2028 16.3467 52.2308 16.2253 52.2308 16.076V11.988C52.2308 11.6053 52.1608 11.3347 52.0208 11.176C51.8808 11.0173 51.6428 10.938 51.3068 10.938C50.8774 10.938 50.4154 11.1433 49.9208 11.554V16.09C49.9208 16.398 50.0514 16.5847 50.3128 16.65L50.5508 16.72V17H47.3448ZM61.1094 9.3C60.8014 9.3 60.5401 9.202 60.3254 9.006C60.1107 8.81 60.0034 8.56267 60.0034 8.264C60.0034 7.956 60.1107 7.70867 60.3254 7.522C60.5401 7.326 60.8014 7.228 61.1094 7.228C61.4174 7.228 61.6787 7.326 61.8934 7.522C62.1081 7.70867 62.2154 7.956 62.2154 8.264C62.2154 8.56267 62.1081 8.81 61.8934 9.006C61.6787 9.202 61.4174 9.3 61.1094 9.3ZM59.4994 17V16.734L59.7094 16.678C59.8961 16.622 60.0221 16.538 60.0874 16.426C60.1527 16.314 60.1901 16.1647 60.1994 15.978V13.402C60.1994 13.1127 60.1994 12.8467 60.1994 12.604C60.1994 12.352 60.1947 12.0953 60.1854 11.834C60.1854 11.6473 60.1481 11.5027 60.0734 11.4C60.0081 11.288 59.8821 11.2133 59.6954 11.176L59.4994 11.134V10.882L61.9494 10.07L62.1174 10.224L62.0754 12.212V15.992C62.0754 16.1787 62.1081 16.328 62.1734 16.44C62.2481 16.552 62.3741 16.636 62.5514 16.692L62.7054 16.734V17H59.4994ZM65.9592 17.196C65.3805 17.196 64.9232 17.056 64.5872 16.776C64.2605 16.4867 64.0972 16.02 64.0972 15.376C64.0972 15.152 64.0972 14.942 64.0972 14.746C64.1065 14.5407 64.1112 14.3027 64.1112 14.032V10.714H63.1172V10.406L63.4952 10.35C63.7659 10.3033 63.9945 10.2193 64.1812 10.098C64.3772 9.97667 64.5545 9.80867 64.7132 9.594L65.6232 8.334H66.0432L66.0012 10.28H67.5972V10.714H65.9872V15.488C65.9872 15.824 66.0572 16.076 66.1972 16.244C66.3465 16.412 66.5285 16.496 66.7432 16.496C66.9299 16.496 67.0979 16.454 67.2472 16.37C67.3965 16.2767 67.5459 16.1553 67.6952 16.006L67.8772 16.216C67.6999 16.524 67.4525 16.7667 67.1352 16.944C66.8179 17.112 66.4259 17.196 65.9592 17.196Z" fill="white"/>
<defs>
<filter id="filter0_d_2_44" x="0" y="0" width="98" height="33" filterUnits="userSpaceOnUse" color-interpolation-filters="sRGB">
<feFlood flood-opacity="0" result="BackgroundImageFix"/>
<feColorMatrix in="SourceAlpha" type="matrix" values="0 0 0 0 0 0 0 0 0 0 0 0 0 0 0 0 0 0 127 0" result="hardAlpha"/>
<feOffset dy="4"/>
<feGaussianBlur stdDeviation="2"/>
<feComposite in2="hardAlpha" operator="out"/>
<feColorMatrix type="matrix" values="0 0 0 0 0.0901961 0 0 0 0 0.337255 0 0 0 0 0.462745 0 0 0 0.5 0"/>
<feBlend mode="normal" in2="BackgroundImageFix" result="effect1_dropShadow_2_44"/>
<feBlend mode="normal" in="SourceGraphic" in2="effect1_dropShadow_2_44" result="shape"/>
</filter>
</defs>
</svg>
