<svg width="395" height="175" viewBox="0 0 395 175" fill="none" xmlns="http://www.w3.org/2000/svg">
<path d="M12.688 132V129.184L15.248 128.416C16.8693 127.904 17.9787 127.093 18.576 125.984C19.1733 124.789 19.472 123.253 19.472 121.376V58.016C19.472 56.3093 19.2587 54.944 18.832 53.92C18.4053 52.8107 17.3387 51.9573 15.632 51.36L12.688 50.208V47.392H37.136L61.2 109.984L83.856 47.392H108.816V50.208L106.768 50.848C105.147 51.36 104.037 52.1707 103.44 53.28C102.843 54.304 102.544 55.6693 102.544 57.376C102.459 62.3253 102.416 67.2747 102.416 72.224C102.416 77.088 102.416 82.0373 102.416 87.072V92.32C102.416 97.2693 102.416 102.219 102.416 107.168C102.416 112.117 102.459 117.024 102.544 121.888C102.544 123.68 102.757 125.045 103.184 125.984C103.611 126.923 104.635 127.691 106.256 128.288L108.816 129.184V132H77.712V129.184L80.528 128.288C82.1493 127.691 83.1307 126.923 83.472 125.984C83.8987 124.96 84.112 123.595 84.112 121.888V94.112L84.368 59.808L58.256 132H51.088L23.568 60.576L24.08 89.76V121.504C24.08 123.381 24.336 124.875 24.848 125.984C25.36 127.093 26.4267 127.861 28.048 128.288L30.608 129.184V132H12.688ZM130.498 133.792C125.634 133.792 121.495 132.427 118.082 129.696C114.754 126.88 113.09 122.869 113.09 117.664C113.09 113.568 115.053 109.813 118.978 106.4C122.989 102.901 129.261 100.341 137.794 98.72C139.245 98.3787 140.909 98.08 142.786 97.824C144.749 97.4827 146.669 97.1413 148.546 96.8V87.712C148.546 81.9093 147.821 77.8987 146.37 75.68C144.919 73.4613 142.615 72.352 139.458 72.352H139.074C137.111 72.352 135.533 72.992 134.338 74.272C133.229 75.4667 132.503 77.472 132.162 80.288L131.778 81.952C131.522 85.3653 130.626 87.8827 129.09 89.504C127.554 91.04 125.634 91.808 123.33 91.808C121.197 91.808 119.405 91.168 117.954 89.888C116.589 88.5227 115.906 86.7733 115.906 84.64C115.906 81.1413 117.101 78.1973 119.49 75.808C121.879 73.4187 125.037 71.6267 128.962 70.432C132.973 69.2373 137.282 68.64 141.89 68.64C149.485 68.64 155.287 70.4747 159.298 74.144C163.309 77.8133 165.314 83.7867 165.314 92.064V120.608C165.314 124.277 167.063 126.112 170.562 126.112H173.506L174.786 127.52C173.25 129.483 171.543 130.976 169.666 132C167.789 133.109 165.229 133.664 161.986 133.664C158.317 133.664 155.373 132.811 153.154 131.104C151.021 129.312 149.613 126.965 148.93 124.064C146.199 126.965 143.511 129.312 140.866 131.104C138.221 132.896 134.765 133.792 130.498 133.792ZM137.922 125.6C139.629 125.6 141.25 125.216 142.786 124.448C144.322 123.68 146.242 122.4 148.546 120.608V100.128C146.327 100.469 144.066 100.896 141.762 101.408C138.093 102.261 135.106 103.84 132.802 106.144C130.583 108.448 129.474 111.563 129.474 115.488C129.474 118.901 130.242 121.461 131.778 123.168C133.399 124.789 135.447 125.6 137.922 125.6ZM175.188 161.568V159.136L176.852 158.624C178.559 158.197 179.753 157.472 180.436 156.448C181.119 155.509 181.46 154.144 181.46 152.352C181.46 148.853 181.46 145.525 181.46 142.368C181.545 139.296 181.588 136.309 181.588 133.408V98.208C181.588 95.5627 181.588 93.3013 181.588 91.424C181.588 89.4613 181.545 87.2853 181.46 84.896C181.46 83.104 181.161 81.7387 180.564 80.8C179.967 79.776 178.815 79.0933 177.108 78.752L175.188 78.368V76.064L195.796 68.64L197.332 69.92L198.484 74.656C204.372 70.6453 211.028 68.64 218.452 68.64C225.705 68.64 231.508 71.3707 235.86 76.832C240.297 82.2933 242.516 90.3573 242.516 101.024C242.516 111.349 240.084 119.413 235.22 125.216C230.441 130.933 223.913 133.792 215.636 133.792C212.308 133.792 209.151 133.493 206.164 132.896C203.263 132.299 200.66 131.403 198.356 130.208V134.048C198.356 136.608 198.356 139.381 198.356 142.368C198.441 145.355 198.484 148.597 198.484 152.096C198.484 155.509 199.977 157.643 202.964 158.496L205.396 159.136V161.568H175.188ZM209.62 128.672C214.143 128.672 217.684 126.667 220.244 122.656C222.889 118.56 224.212 111.52 224.212 101.536C224.212 91.6373 222.975 84.7253 220.5 80.8C218.025 76.7893 214.527 74.784 210.004 74.784C208.383 74.784 206.633 75.04 204.756 75.552C202.879 76.064 200.873 76.9173 198.74 78.112V126.496C202.153 127.947 205.78 128.672 209.62 128.672ZM263.286 61.6C260.47 61.6 258.081 60.704 256.118 58.912C254.155 57.12 253.174 54.8587 253.174 52.128C253.174 49.312 254.155 47.0507 256.118 45.344C258.081 43.552 260.47 42.656 263.286 42.656C266.102 42.656 268.491 43.552 270.454 45.344C272.417 47.0507 273.398 49.312 273.398 52.128C273.398 54.8587 272.417 57.12 270.454 58.912C268.491 60.704 266.102 61.6 263.286 61.6ZM248.566 132V129.568L250.486 129.056C252.193 128.544 253.345 127.776 253.942 126.752C254.539 125.728 254.881 124.363 254.966 122.656V99.104C254.966 96.4587 254.966 94.0267 254.966 91.808C254.966 89.504 254.923 87.1573 254.838 84.768C254.838 83.0613 254.497 81.7387 253.814 80.8C253.217 79.776 252.065 79.0933 250.358 78.752L248.566 78.368V76.064L270.966 68.64L272.502 70.048L272.118 88.224V122.784C272.118 124.491 272.417 125.856 273.014 126.88C273.697 127.904 274.849 128.672 276.47 129.184L277.878 129.568V132H248.566ZM283.691 132V129.568L285.611 129.056C289.024 128.117 290.774 126.027 290.859 122.784C290.859 119.797 290.859 116.853 290.859 113.952C290.944 110.965 290.987 108.021 290.987 105.12V74.528H283.691V71.712L286.507 71.2C288.214 70.944 289.451 70.3467 290.219 69.408C290.987 68.384 291.542 66.976 291.883 65.184C292.822 61.7707 294.059 58.8267 295.595 56.352C297.216 53.792 299.136 51.4453 301.355 49.312C304.512 46.24 307.883 44.1067 311.467 42.912C315.051 41.7173 318.55 41.12 321.963 41.12C325.291 41.12 328.32 41.8027 331.051 43.168C333.867 44.448 335.275 46.6667 335.275 49.824C335.275 52.0427 334.592 53.8347 333.227 55.2C331.947 56.48 330.07 57.12 327.595 57.12C323.67 57.12 320.214 54.816 317.227 50.208L315.691 48.416C314.667 47.136 313.643 46.624 312.619 46.88C311.595 47.136 310.87 47.9893 310.443 49.44C309.76 52.1707 309.206 55.3707 308.779 59.04C308.438 62.7093 308.224 66.5493 308.139 70.56H322.859V74.528H308.139V105.12C308.139 108.021 308.139 110.923 308.139 113.824C308.224 116.64 308.267 119.499 308.267 122.4C308.267 125.813 309.974 127.904 313.387 128.672L316.715 129.568V132H283.691ZM339.952 162.848C336.539 162.848 333.851 162.037 331.888 160.416C329.925 158.795 328.944 156.661 328.944 154.016C328.944 151.627 329.755 149.707 331.376 148.256C333.083 146.891 334.96 146.208 337.008 146.208C339.141 146.208 340.891 146.592 342.256 147.36C343.621 148.128 344.816 149.237 345.84 150.688L346.608 151.712C348.571 154.101 350.405 154.059 352.112 151.584C353.221 150.133 354.288 148.341 355.312 146.208C356.421 144.075 357.616 141.259 358.896 137.76L334.576 79.648C333.979 78.0267 333.296 76.7893 332.528 75.936C331.76 74.9973 330.608 74.2293 329.072 73.632L326.896 72.864V70.56H358.512V72.864L355.824 73.632C353.947 74.2293 352.923 75.168 352.752 76.448C352.667 77.6427 352.965 79.2213 353.648 81.184L366.704 115.232L379.248 80.928C379.931 79.0507 380.187 77.472 380.016 76.192C379.845 74.912 378.779 74.0587 376.816 73.632L374 72.864V70.56H393.072V72.864L390.256 73.76C388.379 74.272 387.013 75.04 386.16 76.064C385.392 77.0027 384.667 78.4107 383.984 80.288L363.504 135.328C360.091 144.715 356.592 151.627 353.008 156.064C349.509 160.587 345.157 162.848 339.952 162.848Z" fill="#395E66"/>
<path d="M9.688 132V129.184L12.248 128.416C13.8693 127.904 14.9787 127.093 15.576 125.984C16.1733 124.789 16.472 123.253 16.472 121.376V58.016C16.472 56.3093 16.2587 54.944 15.832 53.92C15.4053 52.8107 14.3387 51.9573 12.632 51.36L9.688 50.208V47.392H34.136L58.2 109.984L80.856 47.392H105.816V50.208L103.768 50.848C102.147 51.36 101.037 52.1707 100.44 53.28C99.8427 54.304 99.544 55.6693 99.544 57.376C99.4587 62.3253 99.416 67.2747 99.416 72.224C99.416 77.088 99.416 82.0373 99.416 87.072V92.32C99.416 97.2693 99.416 102.219 99.416 107.168C99.416 112.117 99.4587 117.024 99.544 121.888C99.544 123.68 99.7573 125.045 100.184 125.984C100.611 126.923 101.635 127.691 103.256 128.288L105.816 129.184V132H74.712V129.184L77.528 128.288C79.1493 127.691 80.1307 126.923 80.472 125.984C80.8987 124.96 81.112 123.595 81.112 121.888V94.112L81.368 59.808L55.256 132H48.088L20.568 60.576L21.08 89.76V121.504C21.08 123.381 21.336 124.875 21.848 125.984C22.36 127.093 23.4267 127.861 25.048 128.288L27.608 129.184V132H9.688ZM127.498 133.792C122.634 133.792 118.495 132.427 115.082 129.696C111.754 126.88 110.09 122.869 110.09 117.664C110.09 113.568 112.053 109.813 115.978 106.4C119.989 102.901 126.261 100.341 134.794 98.72C136.245 98.3787 137.909 98.08 139.786 97.824C141.749 97.4827 143.669 97.1413 145.546 96.8V87.712C145.546 81.9093 144.821 77.8987 143.37 75.68C141.919 73.4613 139.615 72.352 136.458 72.352H136.074C134.111 72.352 132.533 72.992 131.338 74.272C130.229 75.4667 129.503 77.472 129.162 80.288L128.778 81.952C128.522 85.3653 127.626 87.8827 126.09 89.504C124.554 91.04 122.634 91.808 120.33 91.808C118.197 91.808 116.405 91.168 114.954 89.888C113.589 88.5227 112.906 86.7733 112.906 84.64C112.906 81.1413 114.101 78.1973 116.49 75.808C118.879 73.4187 122.037 71.6267 125.962 70.432C129.973 69.2373 134.282 68.64 138.89 68.64C146.485 68.64 152.287 70.4747 156.298 74.144C160.309 77.8133 162.314 83.7867 162.314 92.064V120.608C162.314 124.277 164.063 126.112 167.562 126.112H170.506L171.786 127.52C170.25 129.483 168.543 130.976 166.666 132C164.789 133.109 162.229 133.664 158.986 133.664C155.317 133.664 152.373 132.811 150.154 131.104C148.021 129.312 146.613 126.965 145.93 124.064C143.199 126.965 140.511 129.312 137.866 131.104C135.221 132.896 131.765 133.792 127.498 133.792ZM134.922 125.6C136.629 125.6 138.25 125.216 139.786 124.448C141.322 123.68 143.242 122.4 145.546 120.608V100.128C143.327 100.469 141.066 100.896 138.762 101.408C135.093 102.261 132.106 103.84 129.802 106.144C127.583 108.448 126.474 111.563 126.474 115.488C126.474 118.901 127.242 121.461 128.778 123.168C130.399 124.789 132.447 125.6 134.922 125.6ZM172.188 161.568V159.136L173.852 158.624C175.559 158.197 176.753 157.472 177.436 156.448C178.119 155.509 178.46 154.144 178.46 152.352C178.46 148.853 178.46 145.525 178.46 142.368C178.545 139.296 178.588 136.309 178.588 133.408V98.208C178.588 95.5627 178.588 93.3013 178.588 91.424C178.588 89.4613 178.545 87.2853 178.46 84.896C178.46 83.104 178.161 81.7387 177.564 80.8C176.967 79.776 175.815 79.0933 174.108 78.752L172.188 78.368V76.064L192.796 68.64L194.332 69.92L195.484 74.656C201.372 70.6453 208.028 68.64 215.452 68.64C222.705 68.64 228.508 71.3707 232.86 76.832C237.297 82.2933 239.516 90.3573 239.516 101.024C239.516 111.349 237.084 119.413 232.22 125.216C227.441 130.933 220.913 133.792 212.636 133.792C209.308 133.792 206.151 133.493 203.164 132.896C200.263 132.299 197.66 131.403 195.356 130.208V134.048C195.356 136.608 195.356 139.381 195.356 142.368C195.441 145.355 195.484 148.597 195.484 152.096C195.484 155.509 196.977 157.643 199.964 158.496L202.396 159.136V161.568H172.188ZM206.62 128.672C211.143 128.672 214.684 126.667 217.244 122.656C219.889 118.56 221.212 111.52 221.212 101.536C221.212 91.6373 219.975 84.7253 217.5 80.8C215.025 76.7893 211.527 74.784 207.004 74.784C205.383 74.784 203.633 75.04 201.756 75.552C199.879 76.064 197.873 76.9173 195.74 78.112V126.496C199.153 127.947 202.78 128.672 206.62 128.672ZM260.286 61.6C257.47 61.6 255.081 60.704 253.118 58.912C251.155 57.12 250.174 54.8587 250.174 52.128C250.174 49.312 251.155 47.0507 253.118 45.344C255.081 43.552 257.47 42.656 260.286 42.656C263.102 42.656 265.491 43.552 267.454 45.344C269.417 47.0507 270.398 49.312 270.398 52.128C270.398 54.8587 269.417 57.12 267.454 58.912C265.491 60.704 263.102 61.6 260.286 61.6ZM245.566 132V129.568L247.486 129.056C249.193 128.544 250.345 127.776 250.942 126.752C251.539 125.728 251.881 124.363 251.966 122.656V99.104C251.966 96.4587 251.966 94.0267 251.966 91.808C251.966 89.504 251.923 87.1573 251.838 84.768C251.838 83.0613 251.497 81.7387 250.814 80.8C250.217 79.776 249.065 79.0933 247.358 78.752L245.566 78.368V76.064L267.966 68.64L269.502 70.048L269.118 88.224V122.784C269.118 124.491 269.417 125.856 270.014 126.88C270.697 127.904 271.849 128.672 273.47 129.184L274.878 129.568V132H245.566ZM280.691 132V129.568L282.611 129.056C286.024 128.117 287.774 126.027 287.859 122.784C287.859 119.797 287.859 116.853 287.859 113.952C287.944 110.965 287.987 108.021 287.987 105.12V74.528H280.691V71.712L283.507 71.2C285.214 70.944 286.451 70.3467 287.219 69.408C287.987 68.384 288.542 66.976 288.883 65.184C289.822 61.7707 291.059 58.8267 292.595 56.352C294.216 53.792 296.136 51.4453 298.355 49.312C301.512 46.24 304.883 44.1067 308.467 42.912C312.051 41.7173 315.55 41.12 318.963 41.12C322.291 41.12 325.32 41.8027 328.051 43.168C330.867 44.448 332.275 46.6667 332.275 49.824C332.275 52.0427 331.592 53.8347 330.227 55.2C328.947 56.48 327.07 57.12 324.595 57.12C320.67 57.12 317.214 54.816 314.227 50.208L312.691 48.416C311.667 47.136 310.643 46.624 309.619 46.88C308.595 47.136 307.87 47.9893 307.443 49.44C306.76 52.1707 306.206 55.3707 305.779 59.04C305.438 62.7093 305.224 66.5493 305.139 70.56H319.859V74.528H305.139V105.12C305.139 108.021 305.139 110.923 305.139 113.824C305.224 116.64 305.267 119.499 305.267 122.4C305.267 125.813 306.974 127.904 310.387 128.672L313.715 129.568V132H280.691ZM336.952 162.848C333.539 162.848 330.851 162.037 328.888 160.416C326.925 158.795 325.944 156.661 325.944 154.016C325.944 151.627 326.755 149.707 328.376 148.256C330.083 146.891 331.96 146.208 334.008 146.208C336.141 146.208 337.891 146.592 339.256 147.36C340.621 148.128 341.816 149.237 342.84 150.688L343.608 151.712C345.571 154.101 347.405 154.059 349.112 151.584C350.221 150.133 351.288 148.341 352.312 146.208C353.421 144.075 354.616 141.259 355.896 137.76L331.576 79.648C330.979 78.0267 330.296 76.7893 329.528 75.936C328.76 74.9973 327.608 74.2293 326.072 73.632L323.896 72.864V70.56H355.512V72.864L352.824 73.632C350.947 74.2293 349.923 75.168 349.752 76.448C349.667 77.6427 349.965 79.2213 350.648 81.184L363.704 115.232L376.248 80.928C376.931 79.0507 377.187 77.472 377.016 76.192C376.845 74.912 375.779 74.0587 373.816 73.632L371 72.864V70.56H390.072V72.864L387.256 73.76C385.379 74.272 384.013 75.04 383.16 76.064C382.392 77.0027 381.667 78.4107 380.984 80.288L360.504 135.328C357.091 144.715 353.592 151.627 350.008 156.064C346.509 160.587 342.157 162.848 336.952 162.848Z" fill="#387D7A"/>
<path d="M6.688 132V129.184L9.248 128.416C10.8693 127.904 11.9787 127.093 12.576 125.984C13.1733 124.789 13.472 123.253 13.472 121.376V58.016C13.472 56.3093 13.2587 54.944 12.832 53.92C12.4053 52.8107 11.3387 51.9573 9.632 51.36L6.688 50.208V47.392H31.136L55.2 109.984L77.856 47.392H102.816V50.208L100.768 50.848C99.1467 51.36 98.0373 52.1707 97.44 53.28C96.8427 54.304 96.544 55.6693 96.544 57.376C96.4587 62.3253 96.416 67.2747 96.416 72.224C96.416 77.088 96.416 82.0373 96.416 87.072V92.32C96.416 97.2693 96.416 102.219 96.416 107.168C96.416 112.117 96.4587 117.024 96.544 121.888C96.544 123.68 96.7573 125.045 97.184 125.984C97.6107 126.923 98.6347 127.691 100.256 128.288L102.816 129.184V132H71.712V129.184L74.528 128.288C76.1493 127.691 77.1307 126.923 77.472 125.984C77.8987 124.96 78.112 123.595 78.112 121.888V94.112L78.368 59.808L52.256 132H45.088L17.568 60.576L18.08 89.76V121.504C18.08 123.381 18.336 124.875 18.848 125.984C19.36 127.093 20.4267 127.861 22.048 128.288L24.608 129.184V132H6.688ZM124.498 133.792C119.634 133.792 115.495 132.427 112.082 129.696C108.754 126.88 107.09 122.869 107.09 117.664C107.09 113.568 109.053 109.813 112.978 106.4C116.989 102.901 123.261 100.341 131.794 98.72C133.245 98.3787 134.909 98.08 136.786 97.824C138.749 97.4827 140.669 97.1413 142.546 96.8V87.712C142.546 81.9093 141.821 77.8987 140.37 75.68C138.919 73.4613 136.615 72.352 133.458 72.352H133.074C131.111 72.352 129.533 72.992 128.338 74.272C127.229 75.4667 126.503 77.472 126.162 80.288L125.778 81.952C125.522 85.3653 124.626 87.8827 123.09 89.504C121.554 91.04 119.634 91.808 117.33 91.808C115.197 91.808 113.405 91.168 111.954 89.888C110.589 88.5227 109.906 86.7733 109.906 84.64C109.906 81.1413 111.101 78.1973 113.49 75.808C115.879 73.4187 119.037 71.6267 122.962 70.432C126.973 69.2373 131.282 68.64 135.89 68.64C143.485 68.64 149.287 70.4747 153.298 74.144C157.309 77.8133 159.314 83.7867 159.314 92.064V120.608C159.314 124.277 161.063 126.112 164.562 126.112H167.506L168.786 127.52C167.25 129.483 165.543 130.976 163.666 132C161.789 133.109 159.229 133.664 155.986 133.664C152.317 133.664 149.373 132.811 147.154 131.104C145.021 129.312 143.613 126.965 142.93 124.064C140.199 126.965 137.511 129.312 134.866 131.104C132.221 132.896 128.765 133.792 124.498 133.792ZM131.922 125.6C133.629 125.6 135.25 125.216 136.786 124.448C138.322 123.68 140.242 122.4 142.546 120.608V100.128C140.327 100.469 138.066 100.896 135.762 101.408C132.093 102.261 129.106 103.84 126.802 106.144C124.583 108.448 123.474 111.563 123.474 115.488C123.474 118.901 124.242 121.461 125.778 123.168C127.399 124.789 129.447 125.6 131.922 125.6ZM169.188 161.568V159.136L170.852 158.624C172.559 158.197 173.753 157.472 174.436 156.448C175.119 155.509 175.46 154.144 175.46 152.352C175.46 148.853 175.46 145.525 175.46 142.368C175.545 139.296 175.588 136.309 175.588 133.408V98.208C175.588 95.5627 175.588 93.3013 175.588 91.424C175.588 89.4613 175.545 87.2853 175.46 84.896C175.46 83.104 175.161 81.7387 174.564 80.8C173.967 79.776 172.815 79.0933 171.108 78.752L169.188 78.368V76.064L189.796 68.64L191.332 69.92L192.484 74.656C198.372 70.6453 205.028 68.64 212.452 68.64C219.705 68.64 225.508 71.3707 229.86 76.832C234.297 82.2933 236.516 90.3573 236.516 101.024C236.516 111.349 234.084 119.413 229.22 125.216C224.441 130.933 217.913 133.792 209.636 133.792C206.308 133.792 203.151 133.493 200.164 132.896C197.263 132.299 194.66 131.403 192.356 130.208V134.048C192.356 136.608 192.356 139.381 192.356 142.368C192.441 145.355 192.484 148.597 192.484 152.096C192.484 155.509 193.977 157.643 196.964 158.496L199.396 159.136V161.568H169.188ZM203.62 128.672C208.143 128.672 211.684 126.667 214.244 122.656C216.889 118.56 218.212 111.52 218.212 101.536C218.212 91.6373 216.975 84.7253 214.5 80.8C212.025 76.7893 208.527 74.784 204.004 74.784C202.383 74.784 200.633 75.04 198.756 75.552C196.879 76.064 194.873 76.9173 192.74 78.112V126.496C196.153 127.947 199.78 128.672 203.62 128.672ZM257.286 61.6C254.47 61.6 252.081 60.704 250.118 58.912C248.155 57.12 247.174 54.8587 247.174 52.128C247.174 49.312 248.155 47.0507 250.118 45.344C252.081 43.552 254.47 42.656 257.286 42.656C260.102 42.656 262.491 43.552 264.454 45.344C266.417 47.0507 267.398 49.312 267.398 52.128C267.398 54.8587 266.417 57.12 264.454 58.912C262.491 60.704 260.102 61.6 257.286 61.6ZM242.566 132V129.568L244.486 129.056C246.193 128.544 247.345 127.776 247.942 126.752C248.539 125.728 248.881 124.363 248.966 122.656V99.104C248.966 96.4587 248.966 94.0267 248.966 91.808C248.966 89.504 248.923 87.1573 248.838 84.768C248.838 83.0613 248.497 81.7387 247.814 80.8C247.217 79.776 246.065 79.0933 244.358 78.752L242.566 78.368V76.064L264.966 68.64L266.502 70.048L266.118 88.224V122.784C266.118 124.491 266.417 125.856 267.014 126.88C267.697 127.904 268.849 128.672 270.47 129.184L271.878 129.568V132H242.566ZM277.691 132V129.568L279.611 129.056C283.024 128.117 284.774 126.027 284.859 122.784C284.859 119.797 284.859 116.853 284.859 113.952C284.944 110.965 284.987 108.021 284.987 105.12V74.528H277.691V71.712L280.507 71.2C282.214 70.944 283.451 70.3467 284.219 69.408C284.987 68.384 285.542 66.976 285.883 65.184C286.822 61.7707 288.059 58.8267 289.595 56.352C291.216 53.792 293.136 51.4453 295.355 49.312C298.512 46.24 301.883 44.1067 305.467 42.912C309.051 41.7173 312.55 41.12 315.963 41.12C319.291 41.12 322.32 41.8027 325.051 43.168C327.867 44.448 329.275 46.6667 329.275 49.824C329.275 52.0427 328.592 53.8347 327.227 55.2C325.947 56.48 324.07 57.12 321.595 57.12C317.67 57.12 314.214 54.816 311.227 50.208L309.691 48.416C308.667 47.136 307.643 46.624 306.619 46.88C305.595 47.136 304.87 47.9893 304.443 49.44C303.76 52.1707 303.206 55.3707 302.779 59.04C302.438 62.7093 302.224 66.5493 302.139 70.56H316.859V74.528H302.139V105.12C302.139 108.021 302.139 110.923 302.139 113.824C302.224 116.64 302.267 119.499 302.267 122.4C302.267 125.813 303.974 127.904 307.387 128.672L310.715 129.568V132H277.691ZM333.952 162.848C330.539 162.848 327.851 162.037 325.888 160.416C323.925 158.795 322.944 156.661 322.944 154.016C322.944 151.627 323.755 149.707 325.376 148.256C327.083 146.891 328.96 146.208 331.008 146.208C333.141 146.208 334.891 146.592 336.256 147.36C337.621 148.128 338.816 149.237 339.84 150.688L340.608 151.712C342.571 154.101 344.405 154.059 346.112 151.584C347.221 150.133 348.288 148.341 349.312 146.208C350.421 144.075 351.616 141.259 352.896 137.76L328.576 79.648C327.979 78.0267 327.296 76.7893 326.528 75.936C325.76 74.9973 324.608 74.2293 323.072 73.632L320.896 72.864V70.56H352.512V72.864L349.824 73.632C347.947 74.2293 346.923 75.168 346.752 76.448C346.667 77.6427 346.965 79.2213 347.648 81.184L360.704 115.232L373.248 80.928C373.931 79.0507 374.187 77.472 374.016 76.192C373.845 74.912 372.779 74.0587 370.816 73.632L368 72.864V70.56H387.072V72.864L384.256 73.76C382.379 74.272 381.013 75.04 380.16 76.064C379.392 77.0027 378.667 78.4107 377.984 80.288L357.504 135.328C354.091 144.715 350.592 151.627 347.008 156.064C343.509 160.587 339.157 162.848 333.952 162.848Z" fill="#329D7A"/>
<path d="M2.688 132V129.184L5.248 128.416C6.86933 127.904 7.97867 127.093 8.576 125.984C9.17333 124.789 9.472 123.253 9.472 121.376V58.016C9.472 56.3093 9.25867 54.944 8.832 53.92C8.40533 52.8107 7.33867 51.9573 5.632 51.36L2.688 50.208V47.392H27.136L51.2 109.984L73.856 47.392H98.816V50.208L96.768 50.848C95.1467 51.36 94.0373 52.1707 93.44 53.28C92.8427 54.304 92.544 55.6693 92.544 57.376C92.4587 62.3253 92.416 67.2747 92.416 72.224C92.416 77.088 92.416 82.0373 92.416 87.072V92.32C92.416 97.2693 92.416 102.219 92.416 107.168C92.416 112.117 92.4587 117.024 92.544 121.888C92.544 123.68 92.7573 125.045 93.184 125.984C93.6107 126.923 94.6347 127.691 96.256 128.288L98.816 129.184V132H67.712V129.184L70.528 128.288C72.1493 127.691 73.1307 126.923 73.472 125.984C73.8987 124.96 74.112 123.595 74.112 121.888V94.112L74.368 59.808L48.256 132H41.088L13.568 60.576L14.08 89.76V121.504C14.08 123.381 14.336 124.875 14.848 125.984C15.36 127.093 16.4267 127.861 18.048 128.288L20.608 129.184V132H2.688ZM120.498 133.792C115.634 133.792 111.495 132.427 108.082 129.696C104.754 126.88 103.09 122.869 103.09 117.664C103.09 113.568 105.053 109.813 108.978 106.4C112.989 102.901 119.261 100.341 127.794 98.72C129.245 98.3787 130.909 98.08 132.786 97.824C134.749 97.4827 136.669 97.1413 138.546 96.8V87.712C138.546 81.9093 137.821 77.8987 136.37 75.68C134.919 73.4613 132.615 72.352 129.458 72.352H129.074C127.111 72.352 125.533 72.992 124.338 74.272C123.229 75.4667 122.503 77.472 122.162 80.288L121.778 81.952C121.522 85.3653 120.626 87.8827 119.09 89.504C117.554 91.04 115.634 91.808 113.33 91.808C111.197 91.808 109.405 91.168 107.954 89.888C106.589 88.5227 105.906 86.7733 105.906 84.64C105.906 81.1413 107.101 78.1973 109.49 75.808C111.879 73.4187 115.037 71.6267 118.962 70.432C122.973 69.2373 127.282 68.64 131.89 68.64C139.485 68.64 145.287 70.4747 149.298 74.144C153.309 77.8133 155.314 83.7867 155.314 92.064V120.608C155.314 124.277 157.063 126.112 160.562 126.112H163.506L164.786 127.52C163.25 129.483 161.543 130.976 159.666 132C157.789 133.109 155.229 133.664 151.986 133.664C148.317 133.664 145.373 132.811 143.154 131.104C141.021 129.312 139.613 126.965 138.93 124.064C136.199 126.965 133.511 129.312 130.866 131.104C128.221 132.896 124.765 133.792 120.498 133.792ZM127.922 125.6C129.629 125.6 131.25 125.216 132.786 124.448C134.322 123.68 136.242 122.4 138.546 120.608V100.128C136.327 100.469 134.066 100.896 131.762 101.408C128.093 102.261 125.106 103.84 122.802 106.144C120.583 108.448 119.474 111.563 119.474 115.488C119.474 118.901 120.242 121.461 121.778 123.168C123.399 124.789 125.447 125.6 127.922 125.6ZM165.188 161.568V159.136L166.852 158.624C168.559 158.197 169.753 157.472 170.436 156.448C171.119 155.509 171.46 154.144 171.46 152.352C171.46 148.853 171.46 145.525 171.46 142.368C171.545 139.296 171.588 136.309 171.588 133.408V98.208C171.588 95.5627 171.588 93.3013 171.588 91.424C171.588 89.4613 171.545 87.2853 171.46 84.896C171.46 83.104 171.161 81.7387 170.564 80.8C169.967 79.776 168.815 79.0933 167.108 78.752L165.188 78.368V76.064L185.796 68.64L187.332 69.92L188.484 74.656C194.372 70.6453 201.028 68.64 208.452 68.64C215.705 68.64 221.508 71.3707 225.86 76.832C230.297 82.2933 232.516 90.3573 232.516 101.024C232.516 111.349 230.084 119.413 225.22 125.216C220.441 130.933 213.913 133.792 205.636 133.792C202.308 133.792 199.151 133.493 196.164 132.896C193.263 132.299 190.66 131.403 188.356 130.208V134.048C188.356 136.608 188.356 139.381 188.356 142.368C188.441 145.355 188.484 148.597 188.484 152.096C188.484 155.509 189.977 157.643 192.964 158.496L195.396 159.136V161.568H165.188ZM199.62 128.672C204.143 128.672 207.684 126.667 210.244 122.656C212.889 118.56 214.212 111.52 214.212 101.536C214.212 91.6373 212.975 84.7253 210.5 80.8C208.025 76.7893 204.527 74.784 200.004 74.784C198.383 74.784 196.633 75.04 194.756 75.552C192.879 76.064 190.873 76.9173 188.74 78.112V126.496C192.153 127.947 195.78 128.672 199.62 128.672ZM253.286 61.6C250.47 61.6 248.081 60.704 246.118 58.912C244.155 57.12 243.174 54.8587 243.174 52.128C243.174 49.312 244.155 47.0507 246.118 45.344C248.081 43.552 250.47 42.656 253.286 42.656C256.102 42.656 258.491 43.552 260.454 45.344C262.417 47.0507 263.398 49.312 263.398 52.128C263.398 54.8587 262.417 57.12 260.454 58.912C258.491 60.704 256.102 61.6 253.286 61.6ZM238.566 132V129.568L240.486 129.056C242.193 128.544 243.345 127.776 243.942 126.752C244.539 125.728 244.881 124.363 244.966 122.656V99.104C244.966 96.4587 244.966 94.0267 244.966 91.808C244.966 89.504 244.923 87.1573 244.838 84.768C244.838 83.0613 244.497 81.7387 243.814 80.8C243.217 79.776 242.065 79.0933 240.358 78.752L238.566 78.368V76.064L260.966 68.64L262.502 70.048L262.118 88.224V122.784C262.118 124.491 262.417 125.856 263.014 126.88C263.697 127.904 264.849 128.672 266.47 129.184L267.878 129.568V132H238.566ZM273.691 132V129.568L275.611 129.056C279.024 128.117 280.774 126.027 280.859 122.784C280.859 119.797 280.859 116.853 280.859 113.952C280.944 110.965 280.987 108.021 280.987 105.12V74.528H273.691V71.712L276.507 71.2C278.214 70.944 279.451 70.3467 280.219 69.408C280.987 68.384 281.542 66.976 281.883 65.184C282.822 61.7707 284.059 58.8267 285.595 56.352C287.216 53.792 289.136 51.4453 291.355 49.312C294.512 46.24 297.883 44.1067 301.467 42.912C305.051 41.7173 308.55 41.12 311.963 41.12C315.291 41.12 318.32 41.8027 321.051 43.168C323.867 44.448 325.275 46.6667 325.275 49.824C325.275 52.0427 324.592 53.8347 323.227 55.2C321.947 56.48 320.07 57.12 317.595 57.12C313.67 57.12 310.214 54.816 307.227 50.208L305.691 48.416C304.667 47.136 303.643 46.624 302.619 46.88C301.595 47.136 300.87 47.9893 300.443 49.44C299.76 52.1707 299.206 55.3707 298.779 59.04C298.438 62.7093 298.224 66.5493 298.139 70.56H312.859V74.528H298.139V105.12C298.139 108.021 298.139 110.923 298.139 113.824C298.224 116.64 298.267 119.499 298.267 122.4C298.267 125.813 299.974 127.904 303.387 128.672L306.715 129.568V132H273.691ZM329.952 162.848C326.539 162.848 323.851 162.037 321.888 160.416C319.925 158.795 318.944 156.661 318.944 154.016C318.944 151.627 319.755 149.707 321.376 148.256C323.083 146.891 324.96 146.208 327.008 146.208C329.141 146.208 330.891 146.592 332.256 147.36C333.621 148.128 334.816 149.237 335.84 150.688L336.608 151.712C338.571 154.101 340.405 154.059 342.112 151.584C343.221 150.133 344.288 148.341 345.312 146.208C346.421 144.075 347.616 141.259 348.896 137.76L324.576 79.648C323.979 78.0267 323.296 76.7893 322.528 75.936C321.76 74.9973 320.608 74.2293 319.072 73.632L316.896 72.864V70.56H348.512V72.864L345.824 73.632C343.947 74.2293 342.923 75.168 342.752 76.448C342.667 77.6427 342.965 79.2213 343.648 81.184L356.704 115.232L369.248 80.928C369.931 79.0507 370.187 77.472 370.016 76.192C369.845 74.912 368.779 74.0587 366.816 73.632L364 72.864V70.56H383.072V72.864L380.256 73.76C378.379 74.272 377.013 75.04 376.16 76.064C375.392 77.0027 374.667 78.4107 373.984 80.288L353.504 135.328C350.091 144.715 346.592 151.627 343.008 156.064C339.509 160.587 335.157 162.848 329.952 162.848Z" fill="#26A96C"/>
</svg>
